<ttFont>
          <CharString index="0">
            rmoveto
            -353 184 -180 318 168 124 16 callgsubr
            -5 64 -33 75 vhcurveto
            0 -106 -52 -148 -212 -108 129 254 vhcurveto
            685 hlineto
            0 16 55 94 vvcurveto
            249 -153 157 -256 -278 -196 -199 -352 vhcurveto
            190 122 10 callsubr
            19 113 116 152 hhcurveto
            159 94 -130 -160 -12 hvcurveto
            return
          </CharString>
          <CharString index="1">
            rmoveto
            383 172 286 439 438 -157 249 -398 -381 -182 -268 -438 -437 172 -269 391 hvcurveto
            -96 callgsubr
            return
          </CharString>
          <CharString index="2">
            164 29 rmoveto
            0 127 -49 177 274 130 125 191 178 -89 77 -230 53 vhcurveto
            -166 38 -39 35 84 vvcurveto
            146 99 20 122 156 71 -45 0 vhcurveto
            37 57 8 73 -81 callgsubr
            -93 52 -174 -250 -156 -105 -221 -148 101 -101 233 -47 vhcurveto
            129 -26 57 -35 -100 vvcurveto
            -145 -103 -8 -123 -126 -146 44 0 vhcurveto
            -28 -67 2 -76 0 vvcurveto
            return
          </CharString>
          <CharString index="3">
            64 53 52 64 65 -53 51 -64 -63 -52 -51 -65 return
          </CharString>
          <CharString index="4">
            rmoveto
            -6 callsubr
            -118 -138 0 vvcurveto
            37 -48 91 -2 -81 callgsubr
            151 97 -75 callgsubr
            -4 hhcurveto
            endchar
          </CharString>
          <CharString index="5">
            173 50 hlineto
            -102 104 rlineto
            566 vlineto
            222 -85 122 -294 -178 -150 -78 0 0 8 -67 43 -61 vhcurveto
            0 107 67 158 166 53 -64 -155 vhcurveto
            -96 vlineto
            -252 -14 rlineto
            return
          </CharString>
          <CharString index="6">
            172 hintmask 0000000000000000
            hintmask 1001101010000000
            -86 callsubr
            hintmask 0111101010000000
            -102 callsubr
            hintmask 1001101010000000
            -98 callgsubr
            hintmask 0000010100000000
            return
          </CharString>
          <CharString index="7">
            122 10 callgsubr
            -456 205 -238 395 156 164 50 0 vhcurveto
            4 105 -30 56 -81 callgsubr
            -138 -46 -156 -256 -152 201 328 329 152 233 256 156 116 -45 0 vhcurveto
            38 77 5 -29 callgsubr
            -159 50 -156 -387 -213 -261 -457 vhcurveto
            return
          </CharString>
          <CharString index="8">
            rmoveto
            154 hlineto
            170 225 rlineto
            33 hlineto
            164 -225 rlineto
            163 hlineto
            -217 341 rlineto
            -240 hlineto
            endchar
          </CharString>
          <CharString index="9">
            rmoveto
            356 -76 callsubr
            -290 -78 callgsubr
          </CharString>
          <CharString index="10">
            rmoveto
            169 159 97 242 hvcurveto
            12 -24 -27 4 -16 hhcurveto
            -20 -25 -4 -10 -27 hvcurveto
            -114 -71 -75 -118 -118 -71 75 114 vhcurveto
            10 -27 -25 4 -20 hhcurveto
            -16 -27 -5 -11 -24 hvcurveto
            -242 159 -97 169 vhcurveto
            endchar
          </CharString>
          <CharString index="11">
            -37 11 rlinecurve
            -240 -338 12 -28 37 -34 28 -11 rlinecurve
            return
          </CharString>
          <CharString index="12">
            -35 callgsubr
            hintmask 10001010
            -84 callgsubr
            hintmask 01101010
            -84 callsubr
            hintmask 10001010
            -87 callgsubr
            hintmask 00010100
            return
          </CharString>
          <CharString index="13">
            rmoveto
            -197 68 -103 201 168 91 69 0 0 -6 75 -40 52 vhcurveto
            0 -87 -50 -88 -97 -38 46 108 vhcurveto
            591 283 vlineto
            0 31 58 -12 85 vhcurveto
            -302 304 -64 hlineto
            -108 -122 rlineto
            -182 -145 vlineto
            -10 -77 10 -66 0 vvcurveto
            145 hlineto
            return
          </CharString>
          <CharString index="14">
            rmoveto
            0 49 76 73 vhcurveto
            80 56 -108 98 hhcurveto
            130 98 139 0 0 -26 57 -56 32 hvcurveto
            return
          </CharString>
          <CharString index="15">
            hmoveto
            -107 callgsubr
            endchar
          </CharString>
          <CharString index="16">
            rmoveto
            -74 callgsubr
            -379 hmoveto
            -74 callgsubr
            endchar
          </CharString>
          <CharString index="17">
            -31 callgsubr
            582 hlineto
            0 85 -10 115 vhcurveto
            33 hlineto
            282 -572 rlineto
            199 hlineto
            -317 598 rlineto
            189 59 86 144 176 vvcurveto
            230 -137 151 -257 vhcurveto
            -461 hlineto
            183 -628 rmoveto
            477 233 vlineto
            156 89 -85 -149 -172 -115 -81 -186 -110 -67 10 0 hvcurveto
            return
          </CharString>
          <CharString index="18">
            287 hmoveto
            278 hlineto
            199 893 rlineto
            21 hlineto
            217 -893 rlineto
            278 hlineto
            261 1022 rlineto
            -165 hlineto
            -213 -906 rlineto
            -33 -14 callgsubr
            -237 hlineto
            -215 -906 rlineto
            -29 -14 callgsubr
            -173 hlineto
            return
          </CharString>
          <CharString index="19">
            rmoveto
            240 hlineto
            223 339 rlineto
            -158 hlineto
            -150 -223 rlineto
            -51 hlineto
            -163 223 rlineto
            -157 hlineto
            endchar
          </CharString>
          <CharString index="20">
            0 -49 -76 -73 vhcurveto
            -80 -56 108 -98 hhcurveto
            -130 -98 -139 0 hvcurveto
            return
          </CharString>
          <CharString index="21">
            88 286 rmoveto
            -181 125 -125 191 164 75 -6 callgsubr
            64 hlineto
            80 -71 rlineto
            return
          </CharString>
          <CharString index="22">
            rmoveto
            240 hlineto
            227 437 rlineto
            -158 hlineto
            -160 -321 rlineto
            -45 hlineto
            -164 321 rlineto
            -157 hlineto
            endchar
          </CharString>
          <CharString index="23">
            64 hlineto
            81 -71 rlineto
            172 50 hlineto
            -102 104 rlineto
            868 11 callgsubr
            return
          </CharString>
          <CharString index="24">
            225 hmoveto
            172 762 hlineto
            0 27 130 184 47 28 -6 -14 33 vhcurveto
            52 79 4 99 0 vvcurveto
            10 -34 -49 4 -42 hhcurveto
            -116 -77 -83 -37 -28 hvcurveto
            -41 hlineto
            -97 100 rlineto
            -144 -50 hlineto
            81 -83 rlineto
            return
          </CharString>
          <CharString index="25">
            366 hmoveto
            126 hlineto
            -122 -395 rlineto
            164 hlineto
            439 1417 rlineto
            -164 hlineto
            -280 -906 rlineto
            -35 hlineto
            -282 906 rlineto
            -173 hlineto
            return
          </CharString>
          <CharString index="26">
            48 16 5 0 vhcurveto
            0 12 39 56 vvcurveto
            28 -3 31 -9 30 vhcurveto
            -4 -17 -15 -3 -16 hhcurveto
            return
          </CharString>
          <CharString index="27">
            338 rcurveline
            -37 -11 -88 -74 -18 -38 rrcurveto
            endchar
          </CharString>
          <CharString index="28">
            0 71 68 171 151 73 -74 -156 vhcurveto
            -693 173 714 vlineto
            213 -126 137 -215 -152 -103 -91 0 vhcurveto
            return
          </CharString>
          <CharString index="29">
            -58 callsubr
            369 hlineto
            400 249 229 456 456 -227 227 -408 -234 -149 -10 0 hvcurveto
            183 -1206 rmoveto
            1057 vlineto
            0 77 8 138 267 159 -205 -327 -300 -159 -233 -267 vhcurveto
            return
          </CharString>
          <CharString index="30">
            -105 -76 callgsubr
            359 121 323 139 return
          </CharString>
          <CharString index="31">
            288 -18 38 -88 74 -37 11 rlinecurve
            return
          </CharString>
          <CharString index="32">
            762 hlineto
            0 23 54 -10 98 vhcurveto
            0 -363 -16 -229 vhcurveto
            1222 -183 vlineto
            return
          </CharString>
          <CharString index="33">
            rmoveto
            0 98 -43 121 170 117 77 152 93 -66 63 -93 13 vhcurveto
            14 vlineto
            83 20 53 52 94 vvcurveto
            129 -97 63 -156 -114 -93 -43 0 0 3 -52 34 -38 vhcurveto
            0 66 35 96 81 52 -35 -59 -89 -62 -39 -62 vhcurveto
            -63 hlineto
            0 -3 -21 -21 vvcurveto
            -14 2 -25 4 -16 vhcurveto
            60 hlineto
            90 54 -62 -54 -90 -74 -52 -94 -101 -73 40 0 hvcurveto
            -27 -46 -6 -46 0 vvcurveto
            endchar
          </CharString>
          <CharString index="34">
            393 -343 rlineto
            0 76 46 28 72 vhcurveto
            -354 270 rlineto
            41 vlineto
            352 286 rlineto
            -13 67 -85 44 0 vvcurveto
            -393 -354 rlineto
            0 -14 -25 -40 vvcurveto
            -38 10 -26 0 vhcurveto
            return
          </CharString>
          <CharString index="35">
            -105 -456 147 309 166 -145 -21 350 126 461 107 -107 127 return
          </CharString>
          <CharString index="36">
            67 -20 -65 callgsubr
            return
          </CharString>
          <CharString index="37">
            182 183 return
          </CharString>
          <CharString index="38">
            90 vstem
            186 670 rmoveto
            -369 299 -298 368 368 299 298 369 368 -299 298 -368 -368 -299 -298 -368 vhcurveto
            90 hmoveto
            319 258 257 319 319 258 -257 -319 -320 -258 -257 -319 -319 -258 257 320 vhcurveto
            return
          </CharString>
          <CharString index="39">
            63 21 -62 callsubr
            return
          </CharString>
          <CharString index="40">
            rmoveto
            57 -51 59 6 0 vvcurveto
            545 1363 rlineto
            -43 51 -71 -7 0 vvcurveto
            return
          </CharString>
          <CharString index="41">
            -94 callsubr
            endchar
          </CharString>
          <CharString index="42">
            233 -27 163 1087 162 return
          </CharString>
          <CharString index="43">
            111 hmoveto
            183 hlineto
            33 1159 rlineto
            19 hlineto
            312 -921 rlineto
            222 hlineto
            308 921 rlineto
            18 hlineto
            36 -1159 rlineto
            182 hlineto
            -60 1358 rlineto
            -284 hlineto
            -300 -952 rlineto
            -24 hlineto
            -300 952 rlineto
            -284 hlineto
            return
          </CharString>
          <CharString index="44">
            108 26 79 106 110 16 -68 -114 -103 -16 -89 -110 return
          </CharString>
          <CharString index="45">
            -21 436 152 654 116 return
          </CharString>
          <CharString index="46">
            -1157 rmoveto
            0 -4 -61 48 -30 vhcurveto
            324 -169 121 169 106 hlineto
            17 33 -6 60 0 vvcurveto
            -117 231 hlineto
            0 -79 -17 -42 -35 vhcurveto
            -179 -238 vlineto
            106 194 166 251 0 vvcurveto
            -25 29 -90 26 0 vvcurveto
            return
          </CharString>
          <CharString index="47">
            389 797 rmoveto
            121 733 -94 hlineto
            0 -83 -43 -109 -42 vhcurveto
            0 -3 -70 49 -26 vhcurveto
            53 14 66 29 0 vvcurveto
            -4 -1337 -67 callsubr
            return
          </CharString>
          <CharString index="48">
            42 17 11 0 hvcurveto
            41 396 rlineto
            0 -29 23 -69 -69 -29 -18 0 vhcurveto
            37 -395 rlineto
            0 17 -17 42 vhcurveto
            return
          </CharString>
          <CharString index="49">
            182 hmoveto
            return
          </CharString>
          <CharString index="50">
            hstemhm
            122 192 return
          </CharString>
          <CharString index="51">
            -64 52 -52 63 vhcurveto
            -89 -1225 rmoveto
            176 1021 -174 hlineto
            return
          </CharString>
          <CharString index="52">
            172 714 hlineto
            213 -137 137 -215 -149 -108 -95 -23 -24 vhcurveto
            76 -59 -71 42 -120 hhcurveto
            -131 -84 -91 0 hvcurveto
            -63 hlineto
            -73 71 rlineto
            -160 -50 hlineto
            81 -83 rlineto
            return
          </CharString>
          <CharString index="53">
            8 197 127 178 0 vvcurveto
            -36 48 -71 2 -81 callgsubr
            -180 -137 -33 -221 vhcurveto
            return
          </CharString>
          <CharString index="54">
            0 -71 -146 -107 vhcurveto
            -118 -110 168 -170 hhcurveto
            -155 -133 -209 0 hvcurveto
            return
          </CharString>
          <CharString index="55">
            139 378 139 return
          </CharString>
          <CharString index="56">
            rmoveto
            -357 225 -156 202 159 81 -6 callgsubr
            return
          </CharString>
          <CharString index="57">
            0 5 -89 41 -64 vhcurveto
            213 47 61 104 215 vvcurveto
            return
          </CharString>
          <CharString index="58">
            173 1422 -173 hlineto
            return
          </CharString>
          <CharString index="59">
            rmoveto
            71 57 58 71 71 -57 57 -71 -71 -57 -57 -71 -71 57 -58 71 hvcurveto
            endchar
          </CharString>
          <CharString index="60">
            60 -201 rmoveto
            37 -48 71 -2 -81 callgsubr
            181 137 -75 callgsubr
            -4 hhcurveto
            -9 -2 callgsubr
            return
          </CharString>
          <CharString index="61">
            -20 118 374 118 193 118 374 118 -3 -20 hstemhm
            161 125 258 127 190 125 258 127 return
          </CharString>
          <CharString index="62">
            192 20 rmoveto
            0 123 -40 251 273 234 184 368 408 -194 124 -207 -166 -99 -91 0 vhcurveto
            return
          </CharString>
          <CharString index="63">
            -57 callgsubr
            140 411 -31 callsubr
            return
          </CharString>
          <CharString index="64">
            172 855 hlineto
            return
          </CharString>
          <CharString index="65">
            166 hmoveto
            -36 callgsubr
            return
          </CharString>
          <CharString index="66">
            156 116 -45 0 hvcurveto
            38 77 return
          </CharString>
          <CharString index="67">
            746 0 150 1048 160 return
          </CharString>
          <CharString index="68">
            -371 182 return
          </CharString>
          <CharString index="69">
            -693 172 714 vlineto
            62 -13 58 -20 48 vhcurveto
            20 37 51 21 99 hhcurveto
            152 84 -74 -156 hvcurveto
            -693 vlineto
            return
          </CharString>
          <CharString index="70">
            hstem
            -70 callsubr
            return
          </CharString>
          <CharString index="71">
            -37 callgsubr
            1388 411 14 callsubr
            return
          </CharString>
          <CharString index="72">
            116 hstemhm
            return
          </CharString>
          <CharString index="73">
            81 -71 rlineto
            173 50 hlineto
            -101 104 rlineto
            return
          </CharString>
          <CharString index="74">
            21 -21 -9 callsubr
            -46 callgsubr
            return
          </CharString>
          <CharString index="75">
            146 799 139 return
          </CharString>
          <CharString index="76">
            hstemhm
            130 182 return
          </CharString>
          <CharString index="77">
            vlineto
            0 77 8 138 267 159 -205 -327 -300 -159 -233 -267 vhcurveto
            endchar
          </CharString>
          <CharString index="78">
            -75 callsubr
            endchar
          </CharString>
          <CharString index="79">
            -277 0 135 778 131 return
          </CharString>
          <CharString index="80">
            -169 rmoveto
            -123 return
          </CharString>
          <CharString index="81">
            224 -151 114 -202 vhcurveto
            -501 hlineto
            183 -594 rmoveto
            443 273 vlineto
            return
          </CharString>
          <CharString index="82">
            hlineto
            0 20 67 -20 76 vhcurveto
            return
          </CharString>
          <CharString index="83">
            112 232 120 return
          </CharString>
          <CharString index="84">
            232 hstemhm
            return
          </CharString>
          <CharString index="85">
            -6 0 hvcurveto
            return
          </CharString>
          <CharString index="86">
            rmoveto
            849 153 -849 hlineto
            -671 vmoveto
            849 153 -849 hlineto
            endchar
          </CharString>
          <CharString index="87">
            63 19 -21 1231 156 return
          </CharString>
          <CharString index="88">
            66 -27 -14 callsubr
            return
          </CharString>
          <CharString index="89">
            161 -23 callsubr
            return
          </CharString>
          <CharString index="90">
            hstemhm
            88 176 return
          </CharString>
          <CharString index="91">
            rmoveto
            -11 callgsubr
          </CharString>
          <CharString index="92">
            rmoveto
            -83 callgsubr
            return
          </CharString>
          <CharString index="93">
            165 1091 156 return
          </CharString>
          <CharString index="94">
            165 hlineto
            0 31 58 -12 85 vhcurveto
            -184 516 -172 -516 return
          </CharString>
          <CharString index="95">
            273 hlineto
            143 112 -55 -181 -180 -107 -59 -164 hvcurveto
            return
          </CharString>
          <CharString index="96">
            rlineto
            -39 -15 -88 -90 -101 vvcurveto
            return
          </CharString>
          <CharString index="97">
            513 rmoveto
            -353 return
          </CharString>
          <CharString index="98">
            1530 return
          </CharString>
          <CharString index="99">
            405 0 138 329 151 -48 134 514 140 return
          </CharString>
          <CharString index="100">
            -21 572 148 487 151 return
          </CharString>
          <CharString index="101">
            -9 -197 return
          </CharString>
          <CharString index="102">
            -21 -2 callsubr
            146 232 -205 175 return
          </CharString>
          <CharString index="103">
            -277 21 -21 892 172 return
          </CharString>
          <CharString index="104">
            66 21 -21 1213 145 return
          </CharString>
          <CharString index="105">
            3 callgsubr
            -23 callsubr
            return
          </CharString>
          <CharString index="106">
            172 -46 callgsubr
            return
          </CharString>
          <CharString index="107">
            233 0 152 return
          </CharString>
          <CharString index="108">
            -616 21 -21 return
          </CharString>
          <CharString index="109">
            -170 1700 hstem
            170 172 vstem
            170 return
          </CharString>
          <CharString index="110">
            152 hstemhm
            return
          </CharString>
          <CharString index="111">
            65 0 152 475 137 443 151 return
          </CharString>
          <CharString index="112">
            -445 -339 112 1666 112 hstem
            return
          </CharString>
          <CharString index="113">
            411 -69 callgsubr
            return
          </CharString>
          <CharString index="114">
            406 523 153 hstem
            return
          </CharString>
          <CharString index="115">
            173 hintmask 00000000
            return
          </CharString>
          <CharString index="116">
            -178 0 vvcurveto
            return
          </CharString>
          <CharString index="117">
            rmoveto
            174 return
          </CharString>
          <CharString index="118">
            24 callgsubr
            162 return
          </CharString>
          <CharString index="119">
            -104 21 -21 596 134 489 139 return
          </CharString>
          <CharString index="120">
            406 33 1047 hstem
            230 1075 vstem
            return
          </CharString>
          <CharString index="121">
            hstemhm
            -23 callgsubr
            return
          </CharString>
          <CharString index="122">
            172 283 22 return
          </CharString>
          <CharString index="123">
            0 116 return
          </CharString>
          <CharString index="124">
            -64 52 -52 63 vhcurveto
            -85 -1310 rmoveto
            return
          </CharString>
          <CharString index="125">
            rmoveto
            64 53 52 64 65 -53 51 -64 hvcurveto
            return
          </CharString>
          <CharString index="126">
            vstem
            174 520 rmoveto
            return
          </CharString>
          <CharString index="127">
            0 38 -51 64 -28 vhcurveto
            return
          </CharString>
          <CharString index="128">
            -104 0 136 return
          </CharString>
          <CharString index="129">
            -128 178 return
          </CharString>
          <CharString index="130">
            hstemhm
            131 182 527 173 return
          </CharString>
        <CharString name=".notdef">
          236 -540 2560 hstem
          0 183 994 188 vstem
          -540 vmoveto
          1365 2560 -1365 hlineto
          183 -1811 rmoveto
          401 395 -401 396 103 102 394 -403 395 403 102 -102 -402 -396 402 -395 -102 -102 -395 401 -394 -401 rlineto
          endchar
        </CharString>
        <CharString name=".null">
          -26 callgsubr
        </CharString>
        <CharString name="A">
          -68 callsubr
          hstem
          17 callgsubr
          vstem
          41 hmoveto
          -101 callgsubr
          endchar
        </CharString>
        <CharString name="AE">
          -8 callsubr
          hstemhm
          708 183 430 13 hintmask 00000000
          hintmask 10111100
          41 hmoveto
          180 hlineto
          134 467 rlineto
          353 -467 674 hlineto
          20 77 -10 75 -81 callgsubr
          -291 -14 -210 vhcurveto
          432 vlineto
          114 316 -22 callsubr
          20 73 -10 76 -81 callgsubr
          -316 -9 -124 vhcurveto
          514 vlineto
          210 262 -12 0 hvcurveto
          hintmask 11011100
          -28 callgsubr
          endchar
        </CharString>
        <CharString name="AEacute">
          -8 callsubr
          -1 callsubr
          664 433 -389 183 430 13 hintmask 00000000
          hintmask 10110011
          41 hmoveto
          180 hlineto
          134 467 rlineto
          353 -467 674 hlineto
          20 77 -10 75 -81 callgsubr
          -291 -14 -210 vhcurveto
          432 vlineto
          114 316 -22 callsubr
          20 73 -10 76 -81 callgsubr
          -316 -9 -124 vhcurveto
          514 vlineto
          210 262 -12 0 hvcurveto
          hintmask 11010011
          -28 callgsubr
          hintmask 00001100
          33 912 -98 callsubr
        </CharString>
        <CharString name="Aacute">
          -68 callsubr
          -1 callsubr
          17 callgsubr
          -739 433 hintmask 11101000
          41 hmoveto
          -101 callgsubr
          hintmask 00010100
          -306 942 -98 callsubr
        </CharString>
        <CharString name="Abreve">
          -68 callsubr
          168 3 callsubr
          17 callgsubr
          -879 -52 callsubr
          hintmask 11101000
          41 hmoveto
          -101 callgsubr
          hintmask 00010110
          -195 938 -97 callsubr
        </CharString>
        <CharString name="Acircumflex">
          -68 callsubr
          396 -35 callsubr
          17 callgsubr
          -892 684 hintmask 11101000
          41 hmoveto
          -101 callgsubr
          hintmask 00010100
          -536 941 -99 callsubr
        </CharString>
        <CharString name="Adieresis">
          -68 callsubr
          hstemhm
          17 callgsubr
          vstemhm
          41 hmoveto
          -101 callgsubr
          21 940 -91 callgsubr
          -438 -92 callsubr
        </CharString>
        <CharString name="Agrave">
          -68 callsubr
          -1 callsubr
          17 callgsubr
          -799 433 hintmask 11101000
          41 hmoveto
          -101 callgsubr
          hintmask 00010100
          -87 942 rmoveto
          28 11 37 34 12 28 -290 -80 callsubr
        </CharString>
        <CharString name="Amacron">
          -68 callsubr
          358 136 hstemhm
          17 callgsubr
          -871 637 hintmask 11101000
          41 hmoveto
          -101 callgsubr
          hintmask 00010100
          -506 1128 -92 callgsubr
        </CharString>
        <CharString name="Aogonek">
          63 -39 callsubr
          210 -62 callsubr
          hstemhm
          17 callgsubr
          -326 138 hintmask 11000100
          821 -149 rmoveto
          -123 95 -99 169 -81 callsubr
          -93 -49 31 49 91 95 18 93 hvcurveto
          -197 39 rlineto
          -39 -15 -90 -72 -101 vvcurveto
          hintmask 01111000
          -780 149 rmoveto
          -101 callgsubr
          endchar
        </CharString>
        <CharString name="Aring">
          -68 callsubr
          135 9 callgsubr
          hstemhm
          17 callgsubr
          -784 -24 callsubr
          hintmask 11100100
          41 hmoveto
          -101 callgsubr
          hintmask 00011011
          -198 905 -88 callgsubr
        </CharString>
        <CharString name="Atilde">
          -68 callsubr
          228 -45 callgsubr
          17 callgsubr
          -886 666 hintmask 11100100
          41 hmoveto
          -101 callgsubr
          hintmask 00000000
          -448 1030 -93 callsubr
          hintmask 00001010
          -87 callsubr
          hintmask 00010010
          -61 callgsubr
        </CharString>
        <CharString name="B">
          4 callsubr
          -69 callgsubr
          478 193 -143 193 hintmask 00000000
          hintmask 11110100
          -44 callgsubr
          hintmask 11111000
          -26 callsubr
          hintmask 11110100
          -22 callgsubr
          hintmask 11111000
          -12 callsubr
          endchar
        </CharString>
        <CharString name="C">
          -19 callsubr
          hstem
          122 192 vstem
          -100 callsubr
          endchar
        </CharString>
        <CharString name="CR">
          -26 callgsubr
        </CharString>
        <CharString name="Cacute">
          -19 callsubr
          145 411 -57 callsubr
          219 433 hintmask 11010000
          -100 callsubr
          hintmask 00101000
          488 863 -98 callsubr
        </CharString>
        <CharString name="Ccaron">
          -19 callsubr
          145 116 -57 callsubr
          64 679 hintmask 11010000
          -100 callsubr
          hintmask 00101000
          472 863 -88 callsubr
        </CharString>
        <CharString name="Ccedilla">
          66 -39 callsubr
          162 -14 callsubr
          -57 callsubr
          338 144 hintmask 01110000
          -100 callsubr
          hintmask 10001000
          517 -627 -86 callgsubr
        </CharString>
        <CharString name="Ccircumflex">
          -19 callsubr
          369 116 -57 callsubr
          66 684 hintmask 11010000
          -100 callsubr
          hintmask 00101000
          258 862 -99 callsubr
        </CharString>
        <CharString name="Cdotaccent">
          -19 callsubr
          145 232 -57 callsubr
          289 232 hintmask 11010000
          -100 callsubr
          hintmask 00101000
          596 863 -91 callgsubr
          endchar
        </CharString>
        <CharString name="D">
          233 0 152 1065 151 hstem
          182 183 641 194 vstem
          -78 callsubr
          endchar
        </CharString>
        <CharString name="Dcaron">
          11 callsubr
          116 -69 callgsubr
          -15 679 -23 194 hintmask 11010100
          -78 callsubr
          hintmask 00101000
          -14 1378 -88 callsubr
        </CharString>
        <CharString name="Dcroat">
          0 callsubr
          479 133 453 -51 callgsubr
          -594 -17 vlineto
          -112 -2 rlineto
          -133 vlineto
          112 2 rlineto
          17 hlineto
          183 -479 rmoveto
          477 vlineto
          145 -2 155 -2 0 vvcurveto
          21 73 -10 -29 callgsubr
          -161 -4 -150 -2 vhcurveto
          443 -30 callsubr
        </CharString>
        <CharString name="Delta">
          403 5 132 hstem
          172 1187 vstem
          172 5 rmoveto
          1187 132 hlineto
          -510 1393 rlineto
          -167 hlineto
          -510 -1393 rlineto
          167 hmoveto
          396 1118 30 116 29 -113 398 -1121 rlineto
          endchar
        </CharString>
        <CharString name="E">
          -71 callgsubr
          -37 callsubr
          vstem
          -58 callsubr
          -103 callgsubr
          endchar
        </CharString>
        <CharString name="Eacute">
          -71 callgsubr
          172 6 callsubr
          10 433 hintmask 11101000
          -58 callsubr
          -103 callgsubr
          hintmask 00010100
          270 172 -98 callsubr
        </CharString>
        <CharString name="Ebreve">
          -71 callgsubr
          168 152 -69 callgsubr
          -130 -52 callsubr
          hintmask 11101000
          -58 callsubr
          -103 callgsubr
          hintmask 00010110
          381 168 -97 callsubr
        </CharString>
        <CharString name="Ecaron">
          -71 callgsubr
          172 116 -69 callgsubr
          -145 679 hintmask 11101000
          -58 callsubr
          -103 callgsubr
          hintmask 00010100
          254 172 -88 callsubr
        </CharString>
        <CharString name="Ecircumflex">
          -71 callgsubr
          396 116 -69 callgsubr
          -143 684 hintmask 11101000
          -58 callsubr
          -103 callgsubr
          hintmask 00010100
          40 171 -99 callsubr
        </CharString>
        <CharString name="Edieresis">
          -71 callgsubr
          -69 callgsubr
          vstemhm
          -58 callsubr
          -103 callgsubr
          597 170 -91 callgsubr
          -438 -92 callsubr
        </CharString>
        <CharString name="Edotaccent">
          -71 callgsubr
          -7 callgsubr
          80 232 hintmask 11101000
          -58 callsubr
          -103 callgsubr
          hintmask 00010100
          378 172 -91 callgsubr
          endchar
        </CharString>
        <CharString name="Egrave">
          -71 callgsubr
          172 6 callsubr
          -50 433 hintmask 11101000
          -58 callsubr
          -103 callgsubr
          hintmask 00010100
          489 172 rmoveto
          28 11 37 34 12 28 -290 -80 callsubr
        </CharString>
        <CharString name="Emacron">
          -71 callgsubr
          358 136 -69 callgsubr
          -122 637 hintmask 11101000
          -58 callsubr
          -103 callgsubr
          hintmask 00010100
          70 358 -92 callgsubr
        </CharString>
        <CharString name="Eng">
          236 -511 737 -226 199 960 199 -69 callgsubr
          641 182 hintmask 10001000
          868 -358 rmoveto
          -50 callsubr
          145 vlineto
          -89 226 -93 -99 rlineto
          -222 vlineto
          -197 -19 -41 -119 -25 vhcurveto
          hintmask 01111000
          -686 358 rmoveto
          -85 callgsubr
          endchar
        </CharString>
        <CharString name="Eogonek">
          -104 -39 callsubr
          189 138 -117 -21 631 133 455 139 -69 callgsubr
          246 138 hintmask 10100010
          611 -27 callsubr
          95 -79 169 -81 callsubr
          -93 -49 31 49 78 82 31 93 hvcurveto
          -199 37 rlineto
          -39 -15 -75 -90 -101 vvcurveto
          hintmask 01011100
          -429 169 rmoveto
          -103 callgsubr
          endchar
        </CharString>
        <CharString name="Eth">
          0 callsubr
          479 133 453 -51 callgsubr
          -594 -17 vlineto
          -112 -2 rlineto
          -133 vlineto
          112 2 rlineto
          17 hlineto
          183 -479 rmoveto
          477 vlineto
          145 -2 155 -2 0 vvcurveto
          21 73 -10 -29 callgsubr
          -161 -4 -150 -2 vhcurveto
          443 -30 callsubr
        </CharString>
        <CharString name="Euro">
          66 -27 165 291 143 218 143 296 156 hstem
          122 192 540 9 2 9 vstem
          11 429 rmoveto
          133 hlineto
          -301 63 195 -155 320 hhcurveto
          156 164 50 0 hvcurveto
          4 105 -30 56 -81 callgsubr
          -138 -46 -156 -187 -131 106 185 -57 vhcurveto
          507 -25 callsubr
          -536 hlineto
          -3 30 -1 32 33 vvcurveto
          43 2 41 5 39 vhcurveto
          544 -25 callsubr
          -512 hlineto
          181 61 128 115 180 hhcurveto
          -41 callsubr
          5 -29 callgsubr
          -159 50 -156 -304 -197 -162 -290 -70 vhcurveto
          -130 -24 callgsubr
          106 hlineto
          -3 -40 -2 -40 -43 vvcurveto
          -33 1 -32 2 -30 vhcurveto
          -114 -24 callgsubr
          endchar
        </CharString>
        <CharString name="F">
          12 callsubr
          -37 callsubr
          vstem
          -55 callgsubr
          endchar
        </CharString>
        <CharString name="G">
          -20 callsubr
          hstem
          122 192 574 182 vstem
          -100 callgsubr
          endchar
        </CharString>
        <CharString name="Gbreve">
          -20 callsubr
          141 152 -57 callsubr
          92 139 343 182 -147 139 hintmask 11010100
          -100 callgsubr
          hintmask 00101010
          612 859 -97 callsubr
        </CharString>
        <CharString name="Gcircumflex">
          -20 callsubr
          369 116 -57 callsubr
          79 684 -189 -1 callgsubr
          -100 callgsubr
          hintmask 00101000
          271 862 -99 callsubr
        </CharString>
        <CharString name="Gcommaaccent">
          63 -38 callgsubr
          174 -21 1231 156 -57 callsubr
          87 310 177 182 hintmask 01110100
          -100 callgsubr
          hintmask 10001000
          406 -822 -103 callsubr
        </CharString>
        <CharString name="Gdotaccent">
          -20 callsubr
          145 232 -57 callsubr
          302 232 40 -1 callgsubr
          -100 callgsubr
          hintmask 00101000
          609 863 -91 callgsubr
          endchar
        </CharString>
        <CharString name="H">
          -3 callgsubr
          hstem
          205 183 588 183 vstem
          205 hmoveto
          -54 callgsubr
          endchar
        </CharString>
        <CharString name="Hbar">
          -3 callgsubr
          273 136 hstemhm
          101 1164 -1060 183 588 183 hintmask 00110000
          110 1043 rmoveto
          1143 hlineto
          15 43 0 51 -9 42 rrcurveto
          -1148 hlineto
          -13 -42 0 -48 12 -46 rrcurveto
          hintmask 11001100
          95 -1043 rmoveto
          -54 callgsubr
          endchar
        </CharString>
        <CharString name="Hcircumflex">
          -3 callgsubr
          984 -35 callsubr
          205 183 -45 684 -51 183 hintmask 11010100
          205 hmoveto
          -54 callgsubr
          hintmask 00101000
          138 171 -99 callsubr
        </CharString>
        <CharString name="I">
          1 callsubr
          hstem
          165 183 vstem
          -72 callgsubr
          endchar
        </CharString>
        <CharString name="IJ">
          -104 -395 -21 437 -21 hstemhm
          165 183 331 183 hintmask 01100000
          -72 callgsubr
          hintmask 10010000
          514 -1358 rmoveto
          -36 callgsubr
          endchar
        </CharString>
        <CharString name="Iacute">
          -616 -33 callsubr
          70 433 -338 183 hintmask 10010000
          -72 callgsubr
          hintmask 01100000
          -18 172 -98 callsubr
        </CharString>
        <CharString name="Ibreve">
          1 callsubr
          1526 3 callsubr
          -70 139 96 183 99 139 hintmask 10010000
          -72 callgsubr
          hintmask 01101000
          93 168 -97 callsubr
        </CharString>
        <CharString name="Icircumflex">
          1 callsubr
          1754 -35 callsubr
          -83 684 -436 183 hintmask 10010000
          -72 callgsubr
          hintmask 01100000
          -248 171 -99 callsubr
        </CharString>
        <CharString name="Idieresis">
          1 callsubr
          hstemhm
          165 183 vstemhm
          -72 callgsubr
          309 170 -91 callgsubr
          -438 -92 callsubr
        </CharString>
        <CharString name="Idotaccent">
          1 callsubr
          -9 callsubr
          -23 callsubr
          140 232 -207 183 hintmask 10010000
          -72 callgsubr
          hintmask 01100000
          90 172 -91 callgsubr
          endchar
        </CharString>
        <CharString name="Igrave">
          -616 -33 callsubr
          10 433 -278 183 hintmask 10010000
          -72 callgsubr
          hintmask 01100000
          201 172 rmoveto
          28 11 37 34 12 28 -290 -80 callsubr
        </CharString>
        <CharString name="Imacron">
          1 callsubr
          1716 136 hstemhm
          -62 637 -410 183 hintmask 10010000
          -72 callgsubr
          hintmask 01100000
          -218 358 -92 callgsubr
        </CharString>
        <CharString name="Iogonek">
          -616 -39 callsubr
          210 -21 hstemhm
          35 138 -8 183 hintmask 11100000
          35 -27 callsubr
          96 -79 149 -81 callsubr
          -83 -40 31 49 78 82 31 93 hvcurveto
          -170 56 rlineto
          -81 -39 -62 -85 -101 vvcurveto
          hintmask 01010000
          130 169 rmoveto
          183 1358 -183 hlineto
          endchar
        </CharString>
        <CharString name="Itilde">
          1 callsubr
          1586 -45 callgsubr
          -77 666 -424 183 hintmask 10001000
          -72 callgsubr
          hintmask 00000000
          -160 260 -93 callsubr
          hintmask 00110000
          -87 callsubr
          hintmask 01010000
          -61 callgsubr
        </CharString>
        <CharString name="J">
          -395 -21 hstem
          166 183 vstem
          -42 callsubr
          endchar
        </CharString>
        <CharString name="Jcircumflex">
          -395 -21 2170 -35 callsubr
          -84 684 -434 183 hintmask 10010000
          -42 callsubr
          hintmask 01100000
          -250 171 -99 callsubr
        </CharString>
        <CharString name="K">
          66 21 -21 639 113 -37 callsubr
          vstem
          -50 callgsubr
          endchar
        </CharString>
        <CharString name="Kcommaaccent">
          66 -25 callgsubr
          639 113 -69 callgsubr
          104 310 hintmask 01110000
          -50 callgsubr
          hintmask 10001000
          414 -1513 -103 callsubr
        </CharString>
        <CharString name="L">
          21 callsubr
          -37 callsubr
          vstem
          -58 callsubr
          -29 callsubr
        </CharString>
        <CharString name="Lacute">
          21 callsubr
          1394 6 callsubr
          -143 433 hintmask 10100000
          -58 callsubr
          -75 callsubr
          hintmask 01010000
          117 172 -98 callsubr
        </CharString>
        <CharString name="Lcaron">
          21 callsubr
          1286 21 -69 callgsubr
          174 171 hintmask 01010000
          510 1023 rmoveto
          51 -33 68 22 -81 callgsubr
          115 189 -44 220 vhcurveto
          -74 48 -107 -45 -5 -2 rrcurveto
          58 -189 -62 -210 0 vvcurveto
          hintmask 10100000
          -328 -1023 -30 callgsubr
        </CharString>
        <CharString name="Lcommaaccent">
          -104 -38 callgsubr
          155 136 -69 callgsubr
          11 310 hintmask 01100000
          -58 callsubr
          -75 callsubr
          hintmask 10010000
          321 -1513 -103 callsubr
        </CharString>
        <CharString name="Ldot">
          21 callsubr
          458 257 -69 callgsubr
          321 256 hintmask 10100000
          -58 callsubr
          -75 callsubr
          hintmask 01010000
          632 -764 -48 callsubr
        </CharString>
        <CharString name="Lslash">
          21 callsubr
          335 442 hstemhm
          0 850 -668 183 hintmask 01100000
          471 vmoveto
          850 299 rlineto
          143 vlineto
          -850 -299 rlineto
          hintmask 10010000
          182 -614 -30 callgsubr
        </CharString>
        <CharString name="M">
          5 callgsubr
          hstem
          111 1313 vstem
          -64 callsubr
          endchar
        </CharString>
        <CharString name="N">
          -27 callgsubr
          -37 callsubr
          641 182 vstem
          182 hmoveto
          -85 callgsubr
          endchar
        </CharString>
        <CharString name="Nacute">
          -27 callgsubr
          172 6 callsubr
          134 433 74 -1 callgsubr
          182 hmoveto
          -85 callgsubr
          hintmask 00101000
          394 172 -98 callsubr
        </CharString>
        <CharString name="Ncaron">
          -27 callgsubr
          172 116 -69 callgsubr
          -21 679 -17 -1 callgsubr
          182 hmoveto
          -85 callgsubr
          hintmask 00101000
          378 172 -88 callsubr
        </CharString>
        <CharString name="Ncommaaccent">
          236 -38 callgsubr
          155 199 960 199 -69 callgsubr
          125 310 206 182 hintmask 01110100
          182 hmoveto
          -85 callgsubr
          hintmask 10001000
          435 -1513 -103 callsubr
        </CharString>
        <CharString name="Ntilde">
          -27 callgsubr
          228 -45 callgsubr
          182 183 -13 666 -12 182 hintmask 11001010
          182 hmoveto
          -85 callgsubr
          hintmask 00000000
          252 260 -93 callsubr
          hintmask 00010100
          -87 callsubr
          hintmask 00100100
          -61 callgsubr
        </CharString>
        <CharString name="O">
          -65 callsubr
          hstem
          122 192 734 192 vstem
          685 -27 -106 callsubr
          endchar
        </CharString>
        <CharString name="OE">
          749 -27 163 -136 138 493 133 455 139 -135 162 hstemhm
          97 192 734 179 hintmask 00000000
          hintmask 01101110
          660 -27 rmoveto
          176 115 67 113 72 hvcurveto
          -153 745 vlineto
          19 77 -9 75 -81 callgsubr
          -337 -14 -239 vhcurveto
          493 vlineto
          136 368 -22 callsubr
          hintmask 01110110
          21 73 -10 -29 callgsubr
          -369 -8 -146 vhcurveto
          455 vlineto
          239 309 -12 0 hvcurveto
          31 64 -11 87 0 vvcurveto
          hintmask 10101110
          -747 -128 hlineto
          98 -71 -114 57 -178 hhcurveto
          -381 -182 -268 -438 -437 172 -269 391 hvcurveto
          -96 callgsubr
          endchar
        </CharString>
        <CharString name="Oacute">
          -65 callsubr
          145 411 -57 callsubr
          181 433 120 192 hintmask 11010100
          685 -27 -106 callsubr
          hintmask 00101000
          -113 1394 -98 callsubr
        </CharString>
        <CharString name="Obreve">
          -65 callsubr
          141 152 -57 callsubr
          41 -52 callsubr
          37 192 hintmask 11010010
          685 -27 -106 callsubr
          hintmask 00101100
          -2 1390 -97 callsubr
        </CharString>
        <CharString name="Ocircumflex">
          -65 callsubr
          369 116 -57 callsubr
          28 684 22 192 hintmask 11010100
          685 -27 -106 callsubr
          hintmask 00101000
          -343 1393 -99 callsubr
        </CharString>
        <CharString name="Odieresis">
          -65 callsubr
          -57 callsubr
          734 192 vstemhm
          685 -27 -106 callsubr
          214 1392 -91 callgsubr
          -438 -92 callsubr
        </CharString>
        <CharString name="Ograve">
          -65 callsubr
          145 411 -57 callsubr
          121 433 180 192 hintmask 11010100
          685 -27 -106 callsubr
          hintmask 00101000
          106 1394 rmoveto
          28 11 37 34 12 28 -290 -80 callsubr
        </CharString>
        <CharString name="Ohungarumlaut">
          -65 callsubr
          145 411 -57 callsubr
          64 752 -82 192 hintmask 11010100
          685 -27 -106 callsubr
          hintmask 00101000
          149 1394 -91 callsubr
        </CharString>
        <CharString name="Omacron">
          -65 callsubr
          331 136 -57 callsubr
          49 637 48 192 hintmask 11010100
          685 -27 -106 callsubr
          hintmask 00101000
          -313 1580 -92 callgsubr
        </CharString>
        <CharString name="Omega">
          405 0 133 1262 150 hstem
          136 183 199 130 236 130 200 183 vstem
          136 hmoveto
          512 hlineto
          1 209 rlineto
          -297 94 -33 390 141 vvcurveto
          382 228 179 219 229 219 -194 -367 -141 -33 -389 -297 -93 vhcurveto
          -211 512 vlineto
          19 31 4 53 39 vvcurveto
          28 -2 21 0 vhcurveto
          0 -231 -39 -172 vhcurveto
          20 vlineto
          0 383 98 583 vvcurveto
          481 -320 230 -311 -319 -311 -241 -470 -589 382 -92 0 vhcurveto
          -20 vlineto
          -172 -231 39 0 hvcurveto
          0 -2 -21 -28 vvcurveto
          -39 4 -53 19 -31 vhcurveto
          endchar
        </CharString>
        <CharString name="Oslash">
          233 -180 1700 -1547 163 1087 162 -57 callsubr
          -101 950 -115 192 hintmask 10001000
          213 -117 rmoveto
          54 -53 57 -10 0 vvcurveto
          148 290 6 24 530 1041 17 15 138 268 rlineto
          -39 54 -69 8 0 vvcurveto
          -134 -263 -1 -21 -535 -1043 -19 -13 rlineto
          hintmask 01110100
          319 -207 -106 callsubr
          endchar
        </CharString>
        <CharString name="Otilde">
          -65 callsubr
          201 -45 callgsubr
          122 192 34 666 34 192 hintmask 11001010
          685 -27 -106 callsubr
          hintmask 00000000
          -255 1482 -93 callsubr
          hintmask 00010100
          -87 callsubr
          hintmask 00100100
          -61 callgsubr
        </CharString>
        <CharString name="P">
          66 21 -21 519 148 540 151 -37 callsubr
          508 194 vstem
          -64 callgsubr
          endchar
        </CharString>
        <CharString name="Q">
          -65 callsubr
          hstem
          122 192 734 192 vstem
          685 -27 rmoveto
          19 19 1 1 18 hvcurveto
          1 hlineto
          92 -62 139 -95 165 -96 rrcurveto
          0 69 61 30 93 vhcurveto
          0 -140 58 -136 86 vhcurveto
          34 vlineto
          191 108 88 221 315 vvcurveto
          438 -157 249 -398 -381 -182 -268 -438 -437 172 -269 391 vhcurveto
          -96 callgsubr
          endchar
        </CharString>
        <CharString name="R">
          13 callgsubr
          -37 callsubr
          478 194 vstem
          -90 callsubr
          endchar
        </CharString>
        <CharString name="Racute">
          13 callgsubr
          172 6 callsubr
          79 433 -34 194 hintmask 11101010
          -90 callsubr
          hintmask 00010100
          156 800 -98 callsubr
        </CharString>
        <CharString name="Rcaron">
          13 callgsubr
          172 116 -69 callgsubr
          -76 679 -125 194 hintmask 11101010
          -90 callsubr
          hintmask 00010100
          140 800 -88 callsubr
        </CharString>
        <CharString name="Rcommaaccent">
          66 -540 385 176 -7 callsubr
          -69 callgsubr
          32 310 136 194 hintmask 01111010
          -90 callsubr
          hintmask 10000100
          159 -885 -103 callsubr
        </CharString>
        <CharString name="S">
          -33 callgsubr
          hstem
          166 198 468 203 vstem
          -106 callgsubr
          endchar
        </CharString>
        <CharString name="Sacute">
          -33 callgsubr
          145 411 -10 callgsubr
          47 433 -12 203 hintmask 11010100
          -106 callgsubr
          hintmask 00101000
          329 1487 -98 callsubr
        </CharString>
        <CharString name="Scaron">
          -33 callgsubr
          145 116 -10 callgsubr
          -108 679 -103 203 hintmask 11010100
          -106 callgsubr
          hintmask 00101000
          313 1487 -88 callsubr
        </CharString>
        <CharString name="Scedilla">
          66 -39 callsubr
          162 171 1083 158 -10 callgsubr
          160 144 164 203 hintmask 01110100
          -106 callgsubr
          hintmask 10001000
          352 -3 -86 callgsubr
        </CharString>
        <CharString name="Scircumflex">
          -33 callgsubr
          369 116 -10 callgsubr
          -106 684 -110 203 hintmask 11010100
          -106 callgsubr
          hintmask 00101000
          99 1486 -99 callsubr
        </CharString>
        <CharString name="Scommaaccent">
          66 -38 callgsubr
          128 171 1083 158 -10 callgsubr
          38 310 120 203 hintmask 01110100
          -106 callgsubr
          hintmask 10001000
          370 -198 -103 callsubr
        </CharString>
        <CharString name="T">
          -3 callsubr
          hstem
          499 0 callgsubr
          vstem
          -82 callgsubr
          endchar
        </CharString>
        <CharString name="Tbar">
          66 21 -21 689 136 388 145 hstemhm
          279 637 -417 0 callgsubr
          hintmask 10101100
          -82 callgsubr
          hintmask 01010000
          -211 -524 -92 callgsubr
        </CharString>
        <CharString name="Tcaron">
          -3 callsubr
          172 -35 callsubr
          256 679 -436 0 callgsubr
          hintmask 11001100
          -82 callgsubr
          hintmask 00110000
          -27 317 -88 callsubr
        </CharString>
        <CharString name="Tcommaaccent">
          66 -25 callgsubr
          1213 145 hstemhm
          402 310 -213 0 callgsubr
          hintmask 01101100
          -82 callgsubr
          hintmask 10010000
          30 -1368 -103 callsubr
        </CharString>
        <CharString name="Thorn">
          67 21 -21 270 148 540 151 -37 callsubr
          508 194 vstem
          -31 callgsubr
          281 hlineto
          0 115 -11 115 307 165 199 228 252 -137 160 -257 vhcurveto
          -306 249 -185 hlineto
          183 -930 rmoveto
          530 263 vlineto
          166 79 -104 -161 -200 -145 -75 -199 -100 -64 10 0 hvcurveto
          endchar
        </CharString>
        <CharString name="U">
          -37 callgsubr
          hstem
          -23 callgsubr
          632 178 vstem
          184 527 -104 callgsubr
          endchar
        </CharString>
        <CharString name="Uacute">
          -36 callsubr
          125 433 74 178 hintmask 10101000
          184 527 -104 callgsubr
          hintmask 01010000
          389 1003 -98 callsubr
        </CharString>
        <CharString name="Ubreve">
          -37 callgsubr
          1384 152 14 callsubr
          -15 -52 callsubr
          -9 178 hintmask 10100100
          184 527 -104 callgsubr
          hintmask 01011000
          500 999 -97 callsubr
        </CharString>
        <CharString name="Ucircumflex">
          -37 callgsubr
          1612 116 14 callsubr
          -28 684 -24 178 hintmask 10101000
          184 527 -104 callgsubr
          hintmask 01010000
          159 1002 -99 callsubr
        </CharString>
        <CharString name="Udieresis">
          -37 callgsubr
          14 callsubr
          632 178 vstemhm
          184 527 -104 callgsubr
          716 1001 -91 callgsubr
          -438 -92 callsubr
        </CharString>
        <CharString name="Ugrave">
          -36 callsubr
          65 433 134 178 hintmask 10101000
          184 527 -104 callgsubr
          hintmask 01010000
          608 1003 rmoveto
          28 11 37 34 12 28 -290 -80 callsubr
        </CharString>
        <CharString name="Uhungarumlaut">
          -36 callsubr
          8 752 22 callsubr
          hintmask 10101000
          184 527 -104 callgsubr
          hintmask 01010000
          651 1003 -91 callsubr
        </CharString>
        <CharString name="Umacron">
          -37 callgsubr
          1574 136 14 callsubr
          -7 637 2 178 hintmask 10101000
          184 527 -104 callgsubr
          hintmask 01010000
          189 1189 -92 callgsubr
        </CharString>
        <CharString name="Uogonek">
          236 -39 callsubr
          169 162 14 callsubr
          394 138 100 178 hintmask 10010000
          765 -27 callsubr
          82 -79 169 48 52 5 0 vhcurveto
          0 12 39 56 vvcurveto
          28 -3 31 -9 30 vhcurveto
          -4 -17 -41 -3 -26 hhcurveto
          -93 -36 41 49 76 93 68 48 43 hvcurveto
          -142 -51 rlineto
          -39 -15 -98 -80 -111 vvcurveto
          hintmask 01101000
          -581 696 -104 callgsubr
          endchar
        </CharString>
        <CharString name="Uring">
          -37 callgsubr
          1351 9 callgsubr
          14 callsubr
          80 -24 callsubr
          88 178 hintmask 10010010
          184 527 -104 callgsubr
          hintmask 01101100
          497 966 -88 callgsubr
        </CharString>
        <CharString name="Utilde">
          -37 callgsubr
          1444 -45 callgsubr
          184 187 -22 666 -12 178 hintmask 10010100
          184 527 -104 callgsubr
          hintmask 00000000
          247 1091 -93 callsubr
          hintmask 00101000
          -87 callsubr
          hintmask 01001000
          -61 callgsubr
        </CharString>
        <CharString name="V">
          63 0 150 hstem
          44 1103 vstem
          441 hmoveto
          302 hlineto
          404 1358 rlineto
          -190 hlineto
          -346 -1208 rlineto
          -33 hlineto
          -342 1208 rlineto
          -192 hlineto
          endchar
        </CharString>
        <CharString name="W">
          -40 callsubr
          hstem
          22 callgsubr
          vstem
          -94 callgsubr
          endchar
        </CharString>
        <CharString name="Wacute">
          -40 callsubr
          -1 callsubr
          22 callgsubr
          -1116 433 hintmask 11010000
          -94 callgsubr
          hintmask 00101000
          820 172 -98 callsubr
        </CharString>
        <CharString name="Wcircumflex">
          -40 callsubr
          396 -35 callsubr
          22 callgsubr
          -1269 684 hintmask 11010000
          -94 callgsubr
          hintmask 00101000
          590 171 -99 callsubr
        </CharString>
        <CharString name="Wdieresis">
          -40 callsubr
          hstemhm
          22 callgsubr
          vstemhm
          -94 callgsubr
          1147 170 -91 callgsubr
          -438 -92 callsubr
        </CharString>
        <CharString name="Wgrave">
          -40 callsubr
          -1 callsubr
          22 callgsubr
          -1176 433 hintmask 11010000
          -94 callgsubr
          hintmask 00101000
          1039 172 rmoveto
          28 11 37 34 12 28 -290 -80 callsubr
        </CharString>
        <CharString name="X">
          63 21 -21 hstem
          13 1166 vstem
          13 hmoveto
          216 hlineto
          339 534 rlineto
          16 hlineto
          371 -534 rlineto
          224 hlineto
          -489 673 468 685 rlineto
          -219 hlineto
          -334 -505 rlineto
          -39 hlineto
          -329 505 rlineto
          -213 hlineto
          449 -663 rlineto
          endchar
        </CharString>
        <CharString name="Y">
          -104 21 -21 hstem
          422 183 vstem
          -80 callgsubr
          endchar
        </CharString>
        <CharString name="Yacute">
          -104 -33 callsubr
          326 433 -337 183 hintmask 10010000
          -80 callgsubr
          hintmask 01100000
          -19 1021 -98 callsubr
        </CharString>
        <CharString name="Ycircumflex">
          -104 21 -21 1754 -35 callsubr
          173 684 -435 183 hintmask 10010000
          -80 callgsubr
          hintmask 01100000
          -249 1020 -99 callsubr
        </CharString>
        <CharString name="Ydieresis">
          -104 21 -21 hstemhm
          422 183 vstemhm
          -80 callgsubr
          308 1019 -91 callgsubr
          -438 -92 callsubr
        </CharString>
        <CharString name="Ygrave">
          -104 -33 callsubr
          266 433 -277 183 hintmask 10010000
          -80 callgsubr
          hintmask 01100000
          200 1021 rmoveto
          28 11 37 34 12 28 -290 -80 callsubr
        </CharString>
        <CharString name="Z">
          -19 callgsubr
          hstem
          44 936 vstem
          -79 callgsubr
          endchar
        </CharString>
        <CharString name="Zacute">
          -19 callgsubr
          -1 callsubr
          44 936 -654 433 hintmask 11010000
          -79 callgsubr
          hintmask 00101000
          359 1378 -98 callsubr
        </CharString>
        <CharString name="Zcaron">
          -19 callgsubr
          172 -35 callsubr
          44 936 -809 679 hintmask 11010000
          -79 callgsubr
          hintmask 00101000
          343 1378 -88 callsubr
        </CharString>
        <CharString name="Zdotaccent">
          -19 callgsubr
          172 -23 callsubr
          44 936 -584 232 hintmask 11010000
          -79 callgsubr
          hintmask 00101000
          467 1378 -91 callgsubr
          endchar
        </CharString>
        <CharString name="a">
          -77 callsubr
          -17 callsubr
          422 -35 callgsubr
          hintmask 10011110
          -86 callsubr
          hintmask 01111110
          -102 callsubr
          hintmask 10011110
          -98 callgsubr
          endchar
        </CharString>
        <CharString name="aacute">
          -77 callsubr
          -42 callgsubr
          88 176 55 383 -16 -101 callsubr
          132 908 rmoveto
          306 288 -18 38 -88 74 -96 callsubr
          endchar
        </CharString>
        <CharString name="abreve">
          -77 callsubr
          126 152 -17 callsubr
          -128 -52 callsubr
          -106 172 hintmask 0000000000000000
          hintmask 1001101001000000
          -86 callsubr
          hintmask 0111101001000000
          -102 callsubr
          hintmask 1001101001000000
          -98 callgsubr
          hintmask 0000010110000000
          200 894 -97 callgsubr
        </CharString>
        <CharString name="acircumflex">
          -77 callsubr
          450 116 -17 callsubr
          -140 684 -122 -101 callsubr
          -140 897 -95 callgsubr
        </CharString>
        <CharString name="acute">
          -562 20 callgsubr
          274 383 vstem
          351 1204 rmoveto
          306 288 -18 38 -88 74 -96 callsubr
          endchar
        </CharString>
        <CharString name="acute.cap">
          -642 19 callgsubr
          57 433 vstem
          134 -9 callsubr
          -98 callsubr
        </CharString>
        <CharString name="adieresis">
          -77 callsubr
          -17 callsubr
          422 -35 callgsubr
          hintmask 10011110
          -86 callsubr
          hintmask 01111110
          -102 callsubr
          hintmask 10011110
          -98 callgsubr
          hintmask 00000000
          420 929 -91 callgsubr
          -442 -92 callsubr
        </CharString>
        <CharString name="ae">
          -89 callgsubr
          endchar
        </CharString>
        <CharString name="aeacute">
          -89 callgsubr
          hintmask 10101111
          493 883 rmoveto
          306 288 -18 38 -88 74 -96 callsubr
          endchar
        </CharString>
        <CharString name="agrave">
          -77 callsubr
          -42 callgsubr
          88 176 -26 383 65 -101 callsubr
          280 908 rmoveto
          28 11 37 34 12 28 -240 -80 callsubr
        </CharString>
        <CharString name="amacron">
          -77 callsubr
          301 136 -17 callsubr
          -118 637 -97 -101 callsubr
          -109 1069 -92 callgsubr
        </CharString>
        <CharString name="ampersand">
          500 -40 1365 hstem
          133 1185 vstem
          133 340 rmoveto
          -259 209 -121 196 174 134 57 111 123 vhcurveto
          80 -53 89 -55 101 -56 rrcurveto
          60 43 19 100 0 vvcurveto
          -87 51 -77 48 -69 46 59 73 59 87 61 99 rrcurveto
          0 -49 57 -79 33 vhcurveto
          -51 -91 -58 -93 -65 -79 rrcurveto
          -404 297 -47 195 134 vvcurveto
          132 64 71 126 72 60 -40 -48 43 vhcurveto
          78 45 25 63 -81 callgsubr
          -96 138 -197 -195 -164 -108 -261 -61 14 -84 50 -101 vhcurveto
          -17 -30 rlineto
          -120 -36 -121 -137 -167 vvcurveto
          184 28 rmoveto
          115 48 94 77 45 vhcurveto
          77 -119 124 -137 199 -149 rrcurveto
          -61 -76 -85 -38 -94 hhcurveto
          -163 -107 97 153 hvcurveto
          endchar
        </CharString>
        <CharString name="aogonek">
          -105 -39 callsubr
          169 142 -101 -21 71 51 359 121 323 139 -17 callsubr
          370 138 -86 172 hintmask 1010000100000000
          634 -27 callsubr
          95 -79 169 -81 callsubr
          -93 -49 31 49 91 95 18 93 hvcurveto
          -199 37 -11 callsubr
          hintmask 0000000000000000
          -546 455 rmoveto
          -181 125 -125 191 164 75 -6 callgsubr
          64 hlineto
          80 -71 rlineto
          hintmask 0100111010000000
          -102 callsubr
          hintmask 0011111010000000
          -98 callgsubr
          endchar
        </CharString>
        <CharString name="approxequal">
          67 139 142 26 142 120 4 callgsubr
          hintmask 00011000
          217 591 rmoveto
          -59 callgsubr
          hintmask 00111000
          -53 callsubr
          hintmask 00011000
          20 callsubr
          hintmask 00000000
          -430 vmoveto
          -59 callgsubr
          hintmask 01001000
          -53 callsubr
          hintmask 11001000
          20 callsubr
          endchar
        </CharString>
        <CharString name="aring">
          -77 callsubr
          107 9 callgsubr
          -17 callsubr
          4 -24 callsubr
          -46 172 hintmask 0000000000000000
          hintmask 1001100100100000
          -86 callsubr
          hintmask 0111100100100000
          -102 callsubr
          hintmask 1001100100100000
          -98 callgsubr
          hintmask 0000011011000000
          234 875 -88 callgsubr
        </CharString>
        <CharString name="asciicircum">
          67 115 1075 hstem
          74 1047 vstem
          74 177 rmoveto
          135 -62 358 790 30 96 29 -93 360 -793 135 62 -460 1013 rlineto
          -127 hlineto
          endchar
        </CharString>
        <CharString name="asciitilde">
          67 449 4 callgsubr
          hintmask 01100000
          217 471 rmoveto
          -59 callgsubr
          hintmask 11100000
          -53 callsubr
          hintmask 01100000
          20 callsubr
          endchar
        </CharString>
        <CharString name="asterisk">
          233 1015 22 hstem
          1149 12 vstem
          429 597 rmoveto
          0 145 56 132 130 vhcurveto
          80 -120 68 -152 0 vvcurveto
          52 -3 35 36 -81 callgsubr
          -10 156 -82 164 vhcurveto
          139 41 166 17 0 vvcurveto
          19 49 -24 44 -81 callgsubr
          -151 39 -183 -27 vhcurveto
          5 145 37 162 0 vvcurveto
          -42 33 -49 -8 -81 callgsubr
          -85 -132 -32 -182 vhcurveto
          -135 50 -142 84 0 vvcurveto
          -45 -29 -7 -50 -81 callgsubr
          98 -122 164 -84 vhcurveto
          -88 -114 -124 -110 0 vvcurveto
          12 -52 47 -21 0 vvcurveto
          endchar
        </CharString>
        <CharString name="at">
          919 -362 114 264 114 -26 121 611 103 -24 30 284 115 hstemhm
          185 150 314 150 914 150 hintmask 0000000000000000
          hintmask 1100111110000000
          185 391 rmoveto
          -372 258 -381 522 291 144 113 0 vhcurveto
          hintmask 1011011110000000
          -10 50 -46 38 -81 callgsubr
          -125 -87 -231 -406 -247 270 399 471 315 337 459 364 240 -219 -360 vhcurveto
          hintmask 1101011110000000
          -376 -136 -144 -166 -47 -66 38 64 -26 vhcurveto
          74 713 rlineto
          -139 hlineto
          -4 -30 rlineto
          0 -68 24 -98 -202 -186 -190 -320 -226 126 -99 141 120 68 74 0 vhcurveto
          62 hlineto
          -93 57 80 -69 132 hhcurveto
          264 164 289 338 434 -320 267 -422 -422 -514 -276 -677 hvcurveto
          614 63 rmoveto
          hintmask 1011011110000000
          226 126 156 142 81 42 -20 0 vhcurveto
          -49 -510 rlineto
          hintmask 1101011110000000
          0 -24 -81 -135 -107 -76 71 158 vhcurveto
          endchar
        </CharString>
        <CharString name="atilde">
          -77 callsubr
          186 -45 callgsubr
          88 176 -133 666 -111 172 hintmask 0000000000000000
          hintmask 1001100101000000
          -86 callsubr
          hintmask 0111100101000000
          -102 callsubr
          hintmask 1001100101000000
          -98 callgsubr
          hintmask 0000000000000000
          -51 986 -93 callsubr
          hintmask 0000001010000000
          -87 callsubr
          hintmask 0000010010000000
          -61 callgsubr
        </CharString>
        <CharString name="b">
          -16 callgsubr
          hintmask 00000000
          hintmask 10111000
          -45 callsubr
          hintmask 11011000
          -13 callgsubr
          hintmask 10111000
          172 -1278 -60 callgsubr
          endchar
        </CharString>
        <CharString name="backslash">
          -275 1385 -20 hstem
          48 759 vstem
          673 -236 rmoveto
          0 77 7 57 51 vhcurveto
          -627 1563 rlineto
          0 -89 -6 -43 -51 vhcurveto
          endchar
        </CharString>
        <CharString name="bar">
          2 callsubr
          -170 rmoveto
          172 1700 -172 hlineto
          endchar
        </CharString>
        <CharString name="braceleft">
          -275 611 128 hstem
          178 176 vstem
          307 117 rmoveto
          -246 138 -124 195 -23 vhcurveto
          0 42 33 1 71 vhcurveto
          -129 23 -85 80 168 104 28 95 98 vvcurveto
          166 -71 58 -72 36 vhcurveto
          38 vlineto
          39 15 103 31 214 103 -28 84 88 vvcurveto
          163 85 75 130 22 vhcurveto
          -6 76 -37 31 0 vvcurveto
          -195 -22 -137 -122 -238 -110 38 -99 -105 vvcurveto
          -153 -86 -8 -82 vhcurveto
          0 -7 -30 -38 vvcurveto
          -19 2 -21 5 -20 vhcurveto
          82 87 -6 -168 hvcurveto
          -112 -40 -102 -106 vvcurveto
          endchar
        </CharString>
        <CharString name="braceright">
          -275 611 128 hstem
          500 176 vstem
          547 117 rmoveto
          106 -40 102 112 vvcurveto
          168 87 6 82 vhcurveto
          5 20 2 21 19 vvcurveto
          38 -7 30 0 -82 -86 8 153 vhcurveto
          105 38 99 110 vvcurveto
          238 -137 122 -195 22 vhcurveto
          0 -37 -31 -6 -76 vhcurveto
          130 -22 85 -75 -163 -88 -28 -84 -103 vvcurveto
          -214 103 -31 39 -15 vhcurveto
          -38 vlineto
          -72 -36 -71 -58 -166 -98 28 -95 -104 vvcurveto
          -168 -85 -80 -129 -23 vhcurveto
          1 -71 42 -33 0 vvcurveto
          195 23 138 124 246 vvcurveto
          endchar
        </CharString>
        <CharString name="bracketleft">
          5 callsubr
          180 182 vstem
          180 -339 rmoveto
          410 112 -228 1666 228 112 -410 hlineto
          endchar
        </CharString>
        <CharString name="bracketright">
          5 callsubr
          321 183 vstem
          94 -227 rmoveto
          -112 410 1890 -410 -112 227 -1666 vlineto
          endchar
        </CharString>
        <CharString name="breve">
          -449 1190 152 hstem
          12 -52 callsubr
          vstem
          340 1190 -97 callgsubr
        </CharString>
        <CharString name="breve.cap">
          -444 1526 152 hstem
          14 -52 callsubr
          vstem
          342 1526 -97 callsubr
        </CharString>
        <CharString name="brokenbar">
          2 callsubr
          850 rmoveto
          172 680 -172 hlineto
          -1700 vmoveto
          172 680 -172 hlineto
          endchar
        </CharString>
        <CharString name="bullet">
          -448 371 353 hstem
          162 353 vstem
          339 371 rmoveto
          97 79 79 97 97 -79 80 -97 -97 -80 -80 -97 -97 80 -79 97 hvcurveto
          endchar
        </CharString>
        <CharString name="c">
          -105 -20 -32 callsubr
          hstem
          122 182 vstem
          -99 callgsubr
          endchar
        </CharString>
        <CharString name="cacute">
          -105 -20 -32 callsubr
          -42 callgsubr
          122 182 168 383 hintmask 11010000
          -99 callgsubr
          hintmask 00101000
          427 691 rmoveto
          306 288 -18 38 -88 74 -96 callsubr
          endchar
        </CharString>
        <CharString name="caron">
          -107 1193 116 hstem
          170 684 vstem
          387 1193 -85 callsubr
        </CharString>
        <CharString name="caron.cap">
          -107 -9 callsubr
          116 hstem
          -1 679 vstem
          215 -9 callsubr
          -88 callsubr
        </CharString>
        <CharString name="caronvertical">
          1422 21 hstem
          169 171 vstem
          140 1023 rmoveto
          51 -33 68 22 -81 callgsubr
          115 189 -44 220 vhcurveto
          -74 48 -107 -45 -5 -2 rrcurveto
          58 -189 -62 -210 0 vvcurveto
          endchar
        </CharString>
        <CharString name="ccaron">
          -105 -20 -32 callsubr
          129 -35 callsubr
          122 182 -27 684 hintmask 11010000
          -99 callgsubr
          hintmask 00101000
          372 680 -85 callsubr
        </CharString>
        <CharString name="ccedilla">
          -105 -39 callsubr
          169 -32 callsubr
          hstemhm
          122 182 245 144 hintmask 01110000
          -99 callgsubr
          hintmask 10001000
          414 -473 -86 callgsubr
        </CharString>
        <CharString name="ccircumflex">
          -105 -20 -32 callsubr
          450 -35 callsubr
          122 182 -27 684 hintmask 11010000
          -99 callgsubr
          hintmask 00101000
          155 680 -95 callgsubr
        </CharString>
        <CharString name="cdotaccent">
          -105 -20 -32 callsubr
          -18 callsubr
          122 182 198 232 hintmask 11010000
          -99 callgsubr
          hintmask 00101000
          495 712 -91 callgsubr
          endchar
        </CharString>
        <CharString name="cedilla">
          -39 callsubr
          hstem
          182 144 vstem
          169 40 -86 callgsubr
        </CharString>
        <CharString name="cedilla.cap">
          -39 callsubr
          hstem
          182 139 vstem
          169 40 rmoveto
          0 13 -41 -48 vvcurveto
          -64 -28 -76 -108 -16 -15 3 4 -17 vhcurveto
          -9 -30 -3 -31 -28 vvcurveto
          -56 12 -42 0 vhcurveto
          -2 11 12 0 11 hhcurveto
          165 124 155 144 40 -8 38 -16 34 hvcurveto
          endchar
        </CharString>
        <CharString name="cent">
          -105 -20 121 -121 -32 callsubr
          -68 68 hstemhm
          122 182 224 141 -130 141 hintmask 10011100
          122 513 rmoveto
          -316 155 -177 251 -33 vhcurveto
          -190 vlineto
          72 -25 69 21 0 vvcurveto
          189 vlineto
          109 8 113 32 0 vvcurveto
          2 83 -29 59 0 vvcurveto
          hintmask 01011100
          0 -120 -38 -122 -198 -120 133 254 vhcurveto
          hintmask 10101010
          233 120 179 198 122 103 -37 0 vhcurveto
          30 61 8 71 -81 callgsubr
          -101 31 -104 10 18 callgsubr
          -194 vlineto
          -254 -34 -163 -193 -318 vvcurveto
          endchar
        </CharString>
        <CharString name="circumflex">
          -103 1514 116 hstem
          170 684 vstem
          170 1193 -95 callgsubr
        </CharString>
        <CharString name="circumflex.cap">
          -444 1754 116 hstem
          1 684 vstem
          1 1529 -99 callsubr
        </CharString>
        <CharString name="colon">
          20 -21 763 -21 hstemhm
          2 callgsubr
          hintmask 10100000
          128 128 -15 callsubr
          hintmask 01100000
          742 vmoveto
          -83 callgsubr
          endchar
        </CharString>
        <CharString name="comma">
          -618 -251 425 hstem
          60 320 vstem
          -47 callsubr
          endchar
        </CharString>
        <CharString name="commaaccent">
          -38 callgsubr
          hstem
          61 310 vstem
          188 -155 -103 callsubr
        </CharString>
        <CharString name="commaaccent.cap">
          -38 callgsubr
          hstem
          81 310 vstem
          208 -155 -103 callsubr
        </CharString>
        <CharString name="copyright">
          578 3 90 183 119 562 113 176 90 hstem
          186 90 255 133 766 -69 callsubr
          255 -4 rmoveto
          -256 116 -134 222 87 98 38 0 vhcurveto
          3 75 -23 32 -81 callgsubr
          -78 -26 -87 -128 -77 103 168 170 77 121 128 87 65 -25 0 vhcurveto
          22 50 3 60 -81 callgsubr
          -90 28 -87 -218 -120 -147 -257 vhcurveto
          endchar
        </CharString>
        <CharString name="currency">
          403 184 139 706 133 hstem
          300 181 572 180 vstem
          213 207 rmoveto
          33 -69 64 -34 0 vvcurveto
          161 164 rlineto
          -56 77 101 -28 121 hhcurveto
          116 98 30 58 76 hvcurveto
          161 -162 rlineto
          65 23 36 75 0 vvcurveto
          -169 166 rlineto
          52 81 28 106 127 vvcurveto
          113 -23 92 -41 73 vhcurveto
          152 150 rlineto
          -23 65 -75 36 0 vvcurveto
          -144 -146 rlineto
          60 -78 -104 31 -127 hhcurveto
          -123 -105 -33 -64 -80 hvcurveto
          -150 153 rlineto
          -69 -33 -34 -64 0 vvcurveto
          162 -159 rlineto
          -46 -76 -25 -96 -116 vvcurveto
          -125 27 -102 50 -78 vhcurveto
          104 305 rmoveto
          201 89 154 200 199 84 -123 -218 -202 -84 -163 -199 -200 -89 130 221 vhcurveto
          endchar
        </CharString>
        <CharString name="d">
          67 -76 callgsubr
          811 131 -20 20 23 callsubr
          hintmask 00000000
          hintmask 10010110
          131 493 -51 callsubr
          hintmask 10001110
          62 hlineto
          hintmask 10010110
          -34 callsubr
          hintmask 01110110
          -49 callgsubr
          hintmask 10010110
          -77 callgsubr
          endchar
        </CharString>
        <CharString name="dagger">
          -275 871 143 hstem
          342 172 165 22 vstem
          342 -340 rmoveto
          172 1211 -13 callsubr
          -20 callgsubr
          hlineto
          endchar
        </CharString>
        <CharString name="daggerdbl">
          -275 173 143 555 143 hstemhm
          157 185 0 172 165 22 hintmask 11011000
          679 173 rmoveto
          0 31 58 -12 85 vhcurveto
          -184 555 -13 callsubr
          hlineto
          hintmask 11101000
          -20 callgsubr
          -555 -20 callgsubr
          -515 hlineto
          hintmask 11011000
          172 515 hlineto
          endchar
        </CharString>
        <CharString name="dcaron">
          579 -76 callgsubr
          811 131 -20 20 358 21 23 callsubr
          180 171 hintmask 0000010010000000
          1164 1023 rmoveto
          51 -33 68 22 -81 callgsubr
          115 189 -44 220 vhcurveto
          -74 48 -107 -45 -5 -2 rrcurveto
          58 -189 -62 -210 0 vvcurveto
          hintmask 0000000000000000
          -1033 -530 -51 callsubr
          hintmask 1001001100000000
          62 hlineto
          hintmask 1000101100000000
          -34 callsubr
          hintmask 1001001100000000
          -49 callgsubr
          hintmask 0111001100000000
          -77 callgsubr
          endchar
        </CharString>
        <CharString name="dcroat">
          67 -76 callgsubr
          811 131 -20 20 96 136 hstemhm
          131 182 354 505 -332 173 hintmask 0000010100000000
          676 1160 rmoveto
          484 hlineto
          15 43 0 51 -9 42 rrcurveto
          -490 hlineto
          -13 -42 1 -48 12 -46 rrcurveto
          hintmask 0000000000000000
          -545 -667 -51 callsubr
          hintmask 1001001010000000
          62 hlineto
          hintmask 1000101010000000
          -34 callsubr
          hintmask 1001001010000000
          -49 callgsubr
          hintmask 0111001010000000
          -77 callgsubr
          endchar
        </CharString>
        <CharString name="degree">
          -276 1045 116 402 115 hstem
          118 126 365 125 vstem
          423 1045 rmoveto
          181 130 105 211 208 -130 109 -181 -170 -135 -109 -208 -209 135 -107 170 hvcurveto
          116 vmoveto
          -101 -78 70 130 129 78 73 101 107 79 -73 -129 -132 -79 -68 -107 hvcurveto
          endchar
        </CharString>
        <CharString name="dieresis">
          -107 -2 callsubr
          173 232 210 232 hintmask 00000000
          hintmask 11100000
          730 3 callgsubr
          -91 callgsubr
          -442 -92 callsubr
        </CharString>
        <CharString name="dieresis.cap">
          -642 1528 -23 callsubr
          -91 232 206 232 hintmask 00000000
          hintmask 11100000
          462 1528 -91 callgsubr
          -438 -92 callsubr
        </CharString>
        <CharString name="divide">
          406 20 -21 524 153 281 -21 hstemhm
          222 1091 -674 256 hintmask 01010000
          15 callgsubr
          8 callgsubr
          hintmask 10001000
          417 -548 -15 callsubr
          hintmask 00101000
          937 vmoveto
          -83 callgsubr
          endchar
        </CharString>
        <CharString name="dollar">
          66 -27 128 1126 158 -124 124 -10 callgsubr
          156 141 -122 141 152 203 hintmask 10111010
          159 43 rmoveto
          0 155 -65 206 -5 vhcurveto
          -186 vlineto
          72 -25 69 21 0 vvcurveto
          196 vlineto
          266 29 108 133 242 vvcurveto
          227 -103 88 -296 76 vhcurveto
          -226 60 -46 46 136 vvcurveto
          hintmask 11010110
          143 87 68 189 201 87 -61 0 vhcurveto
          51 74 6 70 -81 callgsubr
          -102 67 -203 7 18 callgsubr
          -196 vlineto
          -230 -28 -143 -124 -248 vvcurveto
          -201 101 -117 308 -77 vhcurveto
          221 -54 36 -46 -134 vvcurveto
          -137 -74 -69 -226 -151 -183 59 0 vhcurveto
          -36 -87 -3 -73 0 vvcurveto
          endchar
        </CharString>
        <CharString name="dotaccent">
          -606 3 callgsubr
          232 hstem
          146 232 vstem
          261 3 callgsubr
          -91 callgsubr
          endchar
        </CharString>
        <CharString name="dotaccent.cap">
          -642 -9 callsubr
          232 hstem
          127 232 vstem
          242 -9 callsubr
          -91 callgsubr
          endchar
        </CharString>
        <CharString name="dotlessi">
          21 -21 hstem
          173 175 vstem
          -62 callgsubr
          endchar
        </CharString>
        <CharString name="dotlessj">
          -395 -21 hstem
          176 174 vstem
          176 -85 rmoveto
          -70 callgsubr
          1134 -174 vlineto
          endchar
        </CharString>
        <CharString name="e">
          -71 callsubr
          hstem
          -17 callgsubr
          533 168 vstem
          153 513 -107 callsubr
          endchar
        </CharString>
        <CharString name="eacute">
          -71 callsubr
          140 411 -9 callgsubr
          150 383 0 168 hintmask 11101010
          153 513 -107 callsubr
          hintmask 00010100
          -306 569 rmoveto
          306 288 -18 38 -88 74 -96 callsubr
          endchar
        </CharString>
        <CharString name="ebreve">
          -71 callsubr
          126 152 -9 callgsubr
          -33 -52 callsubr
          -90 168 hintmask 11101001
          153 513 -107 callsubr
          hintmask 00010110
          -238 555 -97 callgsubr
        </CharString>
        <CharString name="ecaron">
          -71 callsubr
          129 116 -9 callgsubr
          -45 684 -106 168 hintmask 11101010
          153 513 -107 callsubr
          hintmask 00010100
          -361 558 -85 callsubr
        </CharString>
        <CharString name="ecircumflex">
          -71 callsubr
          450 116 -9 callgsubr
          -45 684 -106 168 hintmask 11101010
          153 513 -107 callsubr
          hintmask 00010100
          -578 558 -95 callgsubr
        </CharString>
        <CharString name="edieresis">
          -71 callsubr
          -9 callgsubr
          533 168 vstemhm
          153 513 -107 callsubr
          -18 590 -91 callgsubr
          -442 -92 callsubr
        </CharString>
        <CharString name="edotaccent">
          -71 callsubr
          161 232 -9 callgsubr
          180 232 121 168 hintmask 11101010
          153 513 -107 callsubr
          hintmask 00010100
          -238 590 -91 callgsubr
          endchar
        </CharString>
        <CharString name="egrave">
          -71 callsubr
          140 411 -9 callgsubr
          69 383 81 168 hintmask 11101010
          153 513 -107 callsubr
          hintmask 00010100
          -158 569 rmoveto
          28 11 37 34 12 28 -240 -80 callsubr
        </CharString>
        <CharString name="eight">
          235 -20 1358 hstem
          243 875 vstem
          243 353 rmoveto
          -233 176 -140 263 251 185 136 237 177 -99 122 -141 35 vhcurveto
          11 vlineto
          124 43 79 108 145 vvcurveto
          215 -162 129 -237 -250 -152 -129 -215 -158 79 -95 124 -43 vhcurveto
          -11 vlineto
          -140 -35 -100 -137 -162 vvcurveto
          439 413 rmoveto
          -132 -77 89 130 130 79 81 130 113 94 -85 -126 -136 -94 -83 -113 hvcurveto
          -248 -411 rmoveto
          105 59 150 189 172 73 -150 -105 -156 -119 -77 -126 -136 -112 77 156 vhcurveto
          endchar
        </CharString>
        <CharString name="ellipsis">
          407 -1 257 hstemhm
          2 callgsubr
          256 256 256 256 cntrmask 01110000
          hintmask 00000000
          hintmask 11110000
          1152 128 -15 callsubr
          -512 hmoveto
          -83 callgsubr
          -512 hmoveto
          -83 callgsubr
          endchar
        </CharString>
        <CharString name="emacron">
          -71 callsubr
          301 136 -9 callgsubr
          -23 637 -81 168 hintmask 11101010
          153 513 -107 callsubr
          hintmask 00010100
          -547 730 -92 callgsubr
        </CharString>
        <CharString name="emdash">
          915 520 132 hstem
          174 1696 19 callsubr
          1696 132 -1696 hlineto
          endchar
        </CharString>
        <CharString name="endash">
          234 520 132 hstem
          174 1014 19 callsubr
          1014 132 -1014 hlineto
          endchar
        </CharString>
        <CharString name="eng">
          67 -395 -21 437 -47 callgsubr
          hstemhm
          203 172 466 173 hintmask 11011100
          -43 callgsubr
          0 71 68 171 151 73 -74 -156 vhcurveto
          -778 vlineto
          -70 callgsubr
          -1 114 rlineto
          714 vlineto
          213 -126 137 -215 vhcurveto
          hintmask 11101100
          -152 -103 -91 0 hvcurveto
          -58 callgsubr
          endchar
        </CharString>
        <CharString name="eogonek">
          67 -39 callsubr
          169 -65 callgsubr
          -9 callgsubr
          275 138 120 168 hintmask 10000100
          610 -27 callsubr
          95 -79 169 -81 callsubr
          -93 -49 20 49 91 173 54 26 14 hvcurveto
          -210 -2 -11 callsubr
          hintmask 01111010
          -457 682 -107 callsubr
          endchar
        </CharString>
        <CharString name="equal">
          233 170 153 365 153 hstem
          256 849 vstem
          256 688 -21 callsubr
        </CharString>
        <CharString name="eth">
          66 -27 142 782 132 hstem
          125 183 31 13 536 182 vstem
          125 498 rmoveto
          -280 188 -245 275 353 129 297 323 373 -79 261 -151 161 vhcurveto
          122 115 -89 102 -136 -130 -105 70 -129 37 -151 6 rlinecurve
          0 -36 -70 46 -73 vhcurveto
          106 11 91 -29 74 -51 -116 -111 rcurveline
          93 -95 121 114 rlineto
          89 -110 48 -146 -116 vvcurveto
          -13 hlineto
          43 -22 -73 74 -180 hhcurveto
          -230 -225 -172 -359 hvcurveto
          183 hmoveto
          239 103 160 177 184 116 -135 -266 -151 -94 -230 -198 -208 -80 214 169 vhcurveto
          endchar
        </CharString>
        <CharString name="exclam">
          20 -21 -5 callgsubr
          415 rmoveto
          66 -17 67 17 0 0 30 297 606 vvcurveto
          0 -42 7 -57 -52 -42 -7 0 vhcurveto
          hintmask 10100000
          -608 30 -295 0 vhcurveto
          -61 -287 -15 callsubr
          endchar
        </CharString>
        <CharString name="exclamdown">
          910 21 -5 callgsubr
          515 rmoveto
          0 -30 -295 -608 vvcurveto
          0 42 -7 52 57 42 7 0 606 -30 297 0 vhcurveto
          hintmask 10100000
          0 -67 17 -66 -17 vhcurveto
          -61 287 rmoveto
          -71 57 -57 71 71 57 57 71 71 -57 58 -71 -71 -57 -58 -71 vhcurveto
          endchar
        </CharString>
        <CharString name="f">
          -446 -34 callgsubr
          hstem
          226 172 vstem
          -93 callgsubr
          endchar
        </CharString>
        <CharString name="ff">
          237 -34 callgsubr
          hstemhm
          226 172 511 172 hintmask 11110000
          -93 callgsubr
          hintmask 11101000
          683 -871 rmoveto
          -90 callgsubr
          endchar
        </CharString>
        <CharString name="fi">
          66 21 -21 871 143 211 232 -178 141 hstemhm
          226 172 458 175 hintmask 11011000
          -93 callgsubr
          hintmask 00000000
          718 354 rmoveto
          -104 callsubr
          hvcurveto
          hintmask 10100100
          -56 callsubr
          endchar
        </CharString>
        <CharString name="five">
          63 -20 1348 hstem
          176 840 vstem
          176 56 rmoveto
          0 170 -76 214 289 167 158 278 244 -169 143 -292 -44 -48 -2 -8 -48 vhcurveto
          27 381 rlineto
          249 237 -23 0 hvcurveto
          20 37 4 64 37 vvcurveto
          23 -2 16 0 vhcurveto
          -661 hlineto
          -12 -264 -26 -326 -81 callgsubr
          18 -55 47 -42 vhcurveto
          0 52 14 116 207 132 -92 -178 -137 -96 -118 -198 -178 -118 71 0 vhcurveto
          -47 -73 -10 -72 0 vvcurveto
          endchar
        </CharString>
        <CharString name="fl">
          66 -34 callgsubr
          hstemhm
          226 172 447 173 hintmask 11110000
          -93 callgsubr
          hintmask 10001000
          619 -871 -16 callsubr
        </CharString>
        <CharString name="florin">
          -446 871 143 265 141 hstemhm
          237 171 hintmask 00000000
          hintmask 11100000
          139 -170 rmoveto
          172 hlineto
          81 1041 rlineto
          231 hlineto
          40 70 -7 73 0 vvcurveto
          -251 hlineto
          8 87 rlineto
          126 12 55 52 108 hhcurveto
          79 47 -20 0 hvcurveto
          40 63 11 69 -81 callgsubr
          -55 29 -124 -218 -110 -147 -166 -16 vhcurveto
          -9 -93 rlineto
          -163 hlineto
          0 -16 -65 3 -78 vhcurveto
          163 hlineto
          endchar
        </CharString>
        <CharString name="four">
          233 21 -21 324 142 913 -20 hstem
          788 183 vstem
          202 324 rmoveto
          586 -324 183 324 192 hlineto
          31 59 -10 83 0 vvcurveto
          -213 426 hlineto
          0 -101 -2 -82 -62 vhcurveto
          -362 -434 vlineto
          186 357 312 458 0 vvcurveto
          -42 52 -132 46 0 vvcurveto
          -521 -909 rlineto
          0 -2 -91 47 -55 vhcurveto
          endchar
        </CharString>
        <CharString name="fraction">
          -103 1373 -20 hstem
          182 661 vstem
          182 55 -67 callsubr
          endchar
        </CharString>
        <CharString name="g">
          -72 callsubr
          -52 callgsubr
          441 179 -148 187 hintmask 0000000000000000
          hintmask 1101100011000000
          188 20 rmoveto
          0 -122 -75 -129 vvcurveto
          -165 158 -107 250 312 167 154 201 156 -54 111 -176 vhcurveto
          -334 hlineto
          -68 -27 27 49 hvcurveto
          hintmask 1101010101000000
          85 54 46 0 vhcurveto
          -15 39 75 -8 51 hhcurveto
          224 177 143 213 83 -33 74 -43 58 hvcurveto
          hintmask 1011010011000000
          126 54 rlineto
          69 -322 vlineto
          hintmask 1011011000100000
          0 -67 20 -62 -226 -176 -143 -215 -122 57 -97 80 -63 vhcurveto
          hintmask 1101010010100000
          -41 vlineto
          0 -109 -75 -120 vvcurveto
          -60 16 -45 33 -33 vhcurveto
          hintmask 1101100011000000
          325 426 rmoveto
          hintmask 1101010101000000
          -141 -83 96 134 135 83 96 141 139 83 -96 -135 -149 -83 -81 -139 hvcurveto
          -274 -622 rmoveto
          hintmask 1101011000100000
          79 31 42 16 25 vhcurveto
          391 hlineto
          69 20 -31 -72 -108 -73 -98 -213 -221 -20 85 78 hvcurveto
          endchar
        </CharString>
        <CharString name="gbreve">
          -72 callsubr
          126 152 -52 callgsubr
          -107 -52 callsubr
          23 callgsubr
          -148 187 hintmask 0000000000000000
          hintmask 1101100001001000
          188 20 rmoveto
          0 -122 -75 -129 vvcurveto
          -165 158 -107 250 312 167 154 201 156 -54 111 -176 vhcurveto
          -334 hlineto
          -68 -27 27 49 hvcurveto
          hintmask 1101010010001000
          85 54 46 0 vhcurveto
          -15 39 75 -8 51 hhcurveto
          224 177 143 213 83 -33 74 -43 58 hvcurveto
          hintmask 1011010001001000
          126 54 rlineto
          69 -322 vlineto
          hintmask 1011010100000100
          0 -67 20 -62 -226 -176 -143 -215 -122 57 -97 80 -63 vhcurveto
          hintmask 1101010001000100
          -41 vlineto
          0 -109 -75 -120 vvcurveto
          -60 16 -45 33 -33 vhcurveto
          hintmask 1101100001001000
          325 426 rmoveto
          hintmask 1101010010001000
          -141 -83 96 134 135 83 96 141 139 83 -96 -135 -149 -83 -81 -139 hvcurveto
          -274 -622 rmoveto
          hintmask 1101010100000100
          79 31 42 16 25 vhcurveto
          391 hlineto
          69 20 -31 -72 -108 -73 -98 -213 -221 -20 85 78 hvcurveto
          hintmask 0000001000110000
          276 1336 -97 callgsubr
        </CharString>
        <CharString name="gcircumflex">
          -72 callsubr
          450 116 -52 callgsubr
          -119 684 -124 -102 callgsubr
          -64 1339 -95 callgsubr
        </CharString>
        <CharString name="gcommaaccent">
          -72 callsubr
          164 385 -52 callgsubr
          86 310 45 -102 callgsubr
          324 1374 rmoveto
          9 197 118 138 0 vvcurveto
          -37 48 -91 2 -81 callgsubr
          -151 -97 -31 -222 vhcurveto
          -70 54 125 4 4 hhcurveto
          endchar
        </CharString>
        <CharString name="gdotaccent">
          -72 callsubr
          161 232 -52 callgsubr
          106 232 103 -102 callgsubr
          276 1371 -91 callgsubr
          endchar
        </CharString>
        <CharString name="germandbls">
          67 -20 148 -107 -21 1279 141 hstemhm
          163 172 164 180 20 184 17 183 hintmask 00000000
          hintmask 10111100
          163 hmoveto
          hintmask 01110100
          172 1101 hlineto
          126 58 52 146 112 48 -61 -81 vhcurveto
          -205 -200 13 -205 vvcurveto
          -142 84 -65 170 -71 vhcurveto
          100 -42 47 -70 -79 vvcurveto
          -112 -93 -31 -84 -101 -92 40 0 vhcurveto
          hintmask 10111110
          -36 -63 1 -76 -81 callgsubr
          87 -49 147 200 154 117 179 171 -74 88 -205 89 vhcurveto
          -106 46 -19 31 60 133 204 18 247 vvcurveto
          206 -206 55 -127 -281 -106 -147 -166 vhcurveto
          endchar
        </CharString>
        <CharString name="grave">
          -578 20 callgsubr
          -97 383 vstem
          209 1204 rmoveto
          28 11 37 34 12 28 -240 -80 callsubr
        </CharString>
        <CharString name="grave.cap">
          -642 19 callgsubr
          -3 433 vstem
          353 -9 callsubr
          rmoveto
          28 11 37 34 12 28 -290 -80 callsubr
        </CharString>
        <CharString name="greater">
          13 callsubr
          1305 620 -15 callgsubr
          -358 62 -135 1013 460 rlineto
          endchar
        </CharString>
        <CharString name="greaterequal">
          12 callgsubr
          1189 956 -15 callgsubr
          -306 46 -142 1029 402 rlineto
          -2 -556 rmoveto
          -1042 -153 1042 hlineto
          endchar
        </CharString>
        <CharString name="guillemotleft">
          408 88 826 hstemhm
          233 153 410 153 hintmask 10100000
          806 431 rmoveto
          -73 callsubr
          hintmask 11000000
          -563 hmoveto
          -73 callsubr
          endchar
        </CharString>
        <CharString name="guillemotright">
          408 88 826 hstemhm
          588 153 401 153 hintmask 10100000
          1285 571 rmoveto
          -73 callgsubr
          hintmask 11000000
          -554 hmoveto
          -73 callgsubr
          endchar
        </CharString>
        <CharString name="guilsinglleft">
          -277 88 826 hstem
          174 153 vstem
          184 431 rmoveto
          -73 callsubr
          endchar
        </CharString>
        <CharString name="guilsinglright">
          -277 89 826 hstem
          525 153 vstem
          668 572 rmoveto
          -73 callgsubr
          endchar
        </CharString>
        <CharString name="h">
          7 callgsubr
          hstem
          198 172 467 172 vstem
          -56 callgsubr
          endchar
        </CharString>
        <CharString name="hbar">
          7 callgsubr
          133 129 hstemhm
          41 517 -360 172 467 172 hintmask 00110000
          50 1197 rmoveto
          498 hlineto
          19 47 -13 82 0 vvcurveto
          -503 hlineto
          -13 -42 0 -41 12 -46 rrcurveto
          hintmask 11001100
          148 -1197 rmoveto
          -53 callgsubr
          endchar
        </CharString>
        <CharString name="hcircumflex">
          7 callgsubr
          690 -35 callsubr
          198 172 -36 684 -181 172 hintmask 11010100
          -56 callgsubr
          hintmask 00101000
          136 109 -99 callsubr
        </CharString>
        <CharString name="hungarumlaut">
          5 20 callgsubr
          274 752 vstem
          730 1204 -91 callsubr
        </CharString>
        <CharString name="hungarumlaut.cap">
          -444 19 callgsubr
          37 752 vstem
          493 -9 callsubr
          -91 callsubr
        </CharString>
        <CharString name="hyphen">
          -106 519 132 hstem
          174 672 19 callsubr
          672 -2 rlineto
          132 vlineto
          -672 2 rlineto
          endchar
        </CharString>
        <CharString name="i">
          21 -5 callsubr
          hintmask 00000000
          hintmask 11010000
          261 3 callgsubr
          rmoveto
          -104 callsubr
          hvcurveto
          hintmask 11100000
          -56 callsubr
          endchar
        </CharString>
        <CharString name="iacute">
          21 -21 1204 -46 callgsubr
          115 383 -325 175 hintmask 10010000
          -62 callgsubr
          hintmask 01100000
          18 183 rmoveto
          306 288 -18 38 -88 74 -96 callsubr
          endchar
        </CharString>
        <CharString name="ibreve">
          21 -21 1190 3 callsubr
          -68 139 102 175 101 139 hintmask 10010000
          -62 callgsubr
          hintmask 01101000
          86 169 -97 callgsubr
        </CharString>
        <CharString name="icircumflex">
          21 -21 1514 -35 callsubr
          -80 684 -431 175 hintmask 10010000
          -62 callgsubr
          hintmask 01100000
          -254 172 -95 callgsubr
        </CharString>
        <CharString name="idieresis">
          21 -21 hstemhm
          173 175 vstemhm
          -62 callgsubr
          306 204 -91 callgsubr
          -442 -92 callsubr
        </CharString>
        <CharString name="igrave">
          21 -21 1204 -46 callgsubr
          34 383 -244 175 hintmask 10010000
          -62 callgsubr
          hintmask 01100000
          166 183 rmoveto
          28 11 37 34 12 28 -240 -80 callsubr
        </CharString>
        <CharString name="ij">
          -105 -395 -21 437 -5 callsubr
          247 295 -202 174 hintmask 00000000
          hintmask 01101000
          261 3 callgsubr
          rmoveto
          -104 callsubr
          hvcurveto
          hintmask 01110000
          -56 callsubr
          hintmask 00000000
          599 204 18 callsubr
          hintmask 10100010
          -63 -52 -51 -65 hvcurveto
          hintmask 10100100
          17 callsubr
          hintmask 10100010
          -70 callgsubr
          1134 -174 vlineto
          endchar
        </CharString>
        <CharString name="imacron">
          21 -21 1365 136 hstemhm
          -58 637 -406 175 hintmask 10010000
          -62 callgsubr
          hintmask 01100000
          -223 344 -92 callgsubr
        </CharString>
        <CharString name="infinity">
          574 271 141 442 142 hstem
          108 172 1142 173 vstem
          449 271 rmoveto
          179 108 136 123 111 hvcurveto
          -115 102 109 -144 161 hhcurveto
          213 163 166 192 216 -152 151 -200 -178 -89 -137 -126 -109 hvcurveto
          119 -104 -127 144 -165 hhcurveto
          -204 -159 -168 -199 -208 148 -150 193 hvcurveto
          505 369 rmoveto
          100 83 71 114 124 hhcurveto
          116 74 -95 -130 -117 -61 -100 -117 -128 -86 140 88 -76 hvcurveto
          -488 -228 rmoveto
          -115 -71 92 125 124 55 101 116 126 96 -142 -93 82 hvcurveto
          -97 -80 -91 -110 -118 hhcurveto
          endchar
        </CharString>
        <CharString name="integral">
          -275 -339 139 1935 135 hstemhm
          311 171 -96 175 hintmask 00000000
          hintmask 11010000
          100 -184 rmoveto
          -18 -30 -10 -32 -34 vvcurveto
          hintmask 11100000
          -12 1 -12 3 -13 vhcurveto
          -11 20 66 -11 51 hhcurveto
          hintmask 11010000
          329 19 434 247 hvcurveto
          303 -79 365 292 vvcurveto
          164 20 269 176 26 25 -8 -5 18 vhcurveto
          25 27 10 29 30 vvcurveto
          16 -2 15 -5 16 vhcurveto
          9 -22 -40 6 -42 hhcurveto
          hintmask 11100000
          -302 -58 -318 -285 hvcurveto
          -285 75 -361 -296 vvcurveto
          -214 -16 -311 -188 vhcurveto
          hintmask 11010000
          -28 -29 7 9 -25 hvcurveto
          endchar
        </CharString>
        <CharString name="iogonek">
          -39 callsubr
          210 -21 -2 callsubr
          27 138 8 175 hintmask 11010000
          27 -27 callsubr
          96 -79 149 -81 callsubr
          -83 -40 31 49 78 82 31 93 hvcurveto
          -170 56 rlineto
          -98 -56 -45 -68 -101 vvcurveto
          hintmask 00000000
          234 1394 rmoveto
          -104 callsubr
          hvcurveto
          hintmask 01101000
          -56 callsubr
          endchar
        </CharString>
        <CharString name="itilde">
          21 -21 1250 -45 callgsubr
          -73 666 -420 175 hintmask 10001000
          -62 callgsubr
          hintmask 00000000
          -165 261 -93 callsubr
          hintmask 00110000
          -87 callsubr
          hintmask 01010000
          -61 callgsubr
        </CharString>
        <CharString name="j">
          -395 -21 1641 -23 callsubr
          83 295 -202 174 hintmask 00000000
          hintmask 11010000
          261 3 callgsubr
          18 callsubr
          hintmask 11100000
          -63 -52 -51 -65 hvcurveto
          hintmask 11010000
          17 callsubr
          hintmask 11100000
          -70 callgsubr
          1134 -174 vlineto
          endchar
        </CharString>
        <CharString name="jcircumflex">
          -395 -21 1930 -35 callsubr
          -80 684 -428 174 hintmask 10010000
          176 -85 rmoveto
          -70 callgsubr
          1134 -174 vlineto
          hintmask 01100000
          -256 173 -95 callgsubr
        </CharString>
        <CharString name="k">
          -105 21 -21 474 112 hstem
          190 172 vstem
          -66 callgsubr
          834 -172 hlineto
          endchar
        </CharString>
        <CharString name="kcommaaccent">
          -105 -25 callgsubr
          474 112 hstemhm
          190 172 -4 310 hintmask 01110000
          -66 callgsubr
          834 -172 hlineto
          hintmask 10001000
          295 -1575 -103 callsubr
        </CharString>
        <CharString name="kgreenlandic">
          -105 21 -21 474 112 hstem
          190 172 vstem
          -66 callgsubr
          434 -172 hlineto
          endchar
        </CharString>
        <CharString name="l">
          21 -21 hstem
          162 173 vstem
          162 hmoveto
          -11 callgsubr
        </CharString>
        <CharString name="lacute">
          -33 callsubr
          130 433 -401 173 hintmask 10010000
          162 hmoveto
          -49 callsubr
          hintmask 01100000
          45 108 -98 callsubr
        </CharString>
        <CharString name="lcaron">
          21 -21 1422 21 hstemhm
          162 173 176 171 hintmask 01010000
          482 1023 rmoveto
          51 -33 68 22 -81 callgsubr
          115 189 -44 220 vhcurveto
          -74 48 -107 -45 -5 -2 rrcurveto
          58 -189 -62 -210 0 vvcurveto
          hintmask 10100000
          -320 -1023 -16 callsubr
        </CharString>
        <CharString name="lcommaaccent">
          -25 callgsubr
          hstemhm
          53 310 -201 173 hintmask 01010000
          162 hmoveto
          -49 callsubr
          hintmask 10100000
          18 -1577 -103 callsubr
        </CharString>
        <CharString name="ldot">
          -105 21 -21 425 257 hstemhm
          162 173 291 256 hintmask 10100000
          162 hmoveto
          -49 callsubr
          hintmask 01010000
          592 -997 -48 callsubr
        </CharString>
        <CharString name="less">
          13 callsubr
          230 493 rmoveto
          1013 -460 62 135 -790 358 -8 callgsubr
          endchar
        </CharString>
        <CharString name="lessequal">
          12 callgsubr
          114 816 rmoveto
          1029 -402 46 142 -790 306 -8 callgsubr
          2 -849 rmoveto
          1042 153 -1042 hlineto
          endchar
        </CharString>
        <CharString name="logicalnot">
          7 callsubr
          1160 153 vstem
          15 callgsubr
          938 -342 153 495 -1091 hlineto
          endchar
        </CharString>
        <CharString name="lozenge">
          67 21 -21 hstem
          126 944 vstem
          535 hmoveto
          126 hlineto
          409 678 -409 679 rlineto
          -126 hlineto
          -409 -679 rlineto
          442 -453 rmoveto
          -261 453 261 453 30 76 29 -74 262 -455 -262 -455 -29 -73 rlineto
          endchar
        </CharString>
        <CharString name="lslash">
          21 -21 555 380 hstemhm
          27 458 -323 173 hintmask 01100000
          27 555 rmoveto
          458 238 rlineto
          142 vlineto
          -458 -238 rlineto
          hintmask 10010000
          135 -697 -16 callsubr
        </CharString>
        <CharString name="m">
          576 21 -47 callgsubr
          hstemhm
          209 172 407 172 390 -35 callgsubr
          hintmask 10111100
          -21 callgsubr
          hintmask 11011100
          -38 callsubr
          hintmask 10111100
          -55 callsubr
          endchar
        </CharString>
        <CharString name="macron">
          -105 1365 136 hstem
          194 637 vstem
          203 1365 -92 callgsubr
        </CharString>
        <CharString name="macron.cap">
          -105 1716 136 hstem
          193 637 vstem
          202 1716 -92 callgsubr
        </CharString>
        <CharString name="minus">
          7 callsubr
          222 1091 vstem
          15 callgsubr
          8 callgsubr
          endchar
        </CharString>
        <CharString name="mu">
          66 -384 -21 385 142 -101 -21 71 51 -18 callgsubr
          452 -35 callgsubr
          hintmask 11001100
          312 11 rmoveto
          20 19 rlineto
          -21 33 65 -29 89 hhcurveto
          152 103 91 0 hvcurveto
          64 hlineto
          81 -71 rlineto
          172 hlineto
          hintmask 10111100
          50 vlineto
          -102 104 rlineto
          868 -172 -834 vlineto
          0 -71 -66 -170 -152 -59 73 155 vhcurveto
          hintmask 11001100
          672 -172 -691 vlineto
          -1 -767 rlineto
          144 hlineto
          29 31 rlineto
          endchar
        </CharString>
        <CharString name="multiply">
          239 107 995 hstem
          183 994 vstem
          183 209 rmoveto
          103 -102 394 401 395 -401 102 102 -402 395 402 396 -102 102 -395 -403 -394 403 -103 -102 401 -396 rlineto
          endchar
        </CharString>
        <CharString name="n">
          67 21 -47 callgsubr
          hstemhm
          203 172 466 8 callsubr
          hintmask 10111000
          -43 callgsubr
          hintmask 11011000
          -79 callsubr
          hintmask 10111000
          -58 callgsubr
          endchar
        </CharString>
        <CharString name="nacute">
          67 21 -47 callgsubr
          -42 callgsubr
          203 172 93 383 -10 8 callsubr
          hintmask 10101010
          -43 callgsubr
          hintmask 11001010
          -79 callsubr
          hintmask 10101010
          -58 callgsubr
          hintmask 00010100
          342 293 rmoveto
          306 288 -18 38 -88 74 -96 callsubr
          endchar
        </CharString>
        <CharString name="nbspace">
          -444 endchar
        </CharString>
        <CharString name="ncaron">
          67 21 -47 callgsubr
          129 -35 callsubr
          203 172 -102 684 -116 8 callsubr
          hintmask 10101010
          -43 callgsubr
          hintmask 11001010
          -79 callsubr
          hintmask 10101010
          -58 callgsubr
          hintmask 00010100
          287 282 -85 callsubr
        </CharString>
        <CharString name="ncommaaccent">
          67 -540 385 176 -47 callgsubr
          hstemhm
          203 172 64 310 92 8 callsubr
          hintmask 01011010
          -43 callgsubr
          hintmask 01101010
          -79 callsubr
          hintmask 01011010
          -58 callgsubr
          hintmask 10000100
          363 -1066 -103 callsubr
        </CharString>
        <CharString name="nine">
          236 -20 150 329 141 586 152 hstem
          255 193 468 194 vstem
          330 37 rmoveto
          0 112 -57 194 288 186 253 562 322 -91 221 -341 -251 -172 -168 -280 -310 156 -121 211 152 121 99 0 vhcurveto
          23 -12 rlineto
          -226 -9 -91 -190 -202 hhcurveto
          -159 -76 50 0 hvcurveto
          -47 -73 -4 -70 0 vvcurveto
          358 563 rmoveto
          -153 -87 99 191 169 59 127 175 170 64 -146 -150 -64 -4 -45 -5 -47 hvcurveto
          -65 -49 -72 -69 -98 hhcurveto
          endchar
        </CharString>
        <CharString name="notequal">
          233 -231 1407 -1006 153 365 153 hstemhm
          256 849 -755 661 hintmask 10001000
          350 -186 -67 callsubr
          hintmask 01110000
          -641 -488 -21 callsubr
        </CharString>
        <CharString name="ntilde">
          67 21 -47 callgsubr
          186 -45 callgsubr
          203 172 -95 666 -105 8 callsubr
          hintmask 10100101
          -43 callgsubr
          hintmask 11000101
          -79 callsubr
          hintmask 10100101
          -58 callgsubr
          hintmask 00000000
          159 371 -93 callsubr
          hintmask 00001010
          -87 callsubr
          hintmask 00010010
          -61 callgsubr
        </CharString>
        <CharString name="numbersign">
          235 -14 14 21 -21 359 134 372 134 364 16 hstem
          1203 12 40 12 vstem
          326 hmoveto
          68 -28 66 22 0 vvcurveto
          35 366 294 -1 -31 -359 rlineto
          68 -28 66 22 0 vvcurveto
          32 365 rlineto
          279 hlineto
          27 58 -25 77 0 vvcurveto
          -269 hlineto
          33 371 rlineto
          286 hlineto
          27 58 -25 77 0 vvcurveto
          -276 hlineto
          32 363 rlineto
          -55 33 -80 -27 0 vvcurveto
          -32 -369 rlineto
          -290 hlineto
          35 363 rlineto
          -55 33 -80 -27 0 vvcurveto
          -35 -369 rlineto
          -264 hlineto
          -21 -71 19 -63 0 vvcurveto
          253 hlineto
          -36 -372 rlineto
          -267 hlineto
          -21 -71 19 -63 0 vvcurveto
          257 hlineto
          148 134 rmoveto
          35 372 291 -1 -33 -371 rlineto
          endchar
        </CharString>
        <CharString name="o">
          -57 callgsubr
          hstem
          130 182 570 182 vstem
          130 523 -105 callgsubr
          endchar
        </CharString>
        <CharString name="oacute">
          -44 callsubr
          140 383 47 -1 callgsubr
          130 523 -105 callgsubr
          hintmask 00101000
          217 681 rmoveto
          306 288 -18 38 -88 74 -96 callsubr
          endchar
        </CharString>
        <CharString name="obreve">
          -57 callgsubr
          126 152 -31 callsubr
          -43 -52 callsubr
          -43 182 hintmask 11010010
          130 523 -105 callgsubr
          hintmask 00101100
          285 667 -97 callgsubr
        </CharString>
        <CharString name="ocircumflex">
          -57 callgsubr
          450 116 -31 callsubr
          -55 684 -59 -1 callgsubr
          130 523 -105 callgsubr
          hintmask 00101000
          -55 670 -95 callgsubr
        </CharString>
        <CharString name="odieresis">
          -57 callgsubr
          -31 callsubr
          570 182 vstemhm
          130 523 -105 callgsubr
          505 702 -91 callgsubr
          -442 -92 callsubr
        </CharString>
        <CharString name="oe">
          748 -20 143 -143 -48 callgsubr
          292 137 hstemhm
          146 182 577 165 493 168 hintmask 10111110
          146 523 rmoveto
          -353 174 -190 296 250 106 224 11 5 vhcurveto
          -11 5 112 -224 276 hhcurveto
          174 128 16 callgsubr
          -6 64 -32 75 hvcurveto
          hintmask 01111110
          0 -110 -52 -154 -191 -109 129 254 vhcurveto
          655 hlineto
          0 6 66 83 vvcurveto
          236 -145 170 -244 -233 -113 -217 -11 -5 vhcurveto
          11 -4 -85 217 -286 hhcurveto
          -280 -190 -188 -353 hvcurveto
          -58 callsubr
          233 89 171 199 199 90 -136 -253 vhcurveto
          hintmask 10111110
          -234 -90 -181 -199 -199 -89 146 254 vhcurveto
          750 112 10 callsubr
          16 111 116 137 hhcurveto
          145 86 -128 -162 -10 hvcurveto
          endchar
        </CharString>
        <CharString name="ogonek">
          100 -39 callsubr
          hstem
          182 138 vstem
          182 -27 callsubr
          95 -79 169 -81 callsubr
          -93 -49 20 49 91 173 54 26 14 hvcurveto
          -210 -2 -11 callsubr
          endchar
        </CharString>
        <CharString name="ograve">
          -44 callsubr
          59 383 128 -1 callgsubr
          130 523 -105 callgsubr
          hintmask 00101000
          365 681 rmoveto
          28 11 37 34 12 28 -240 -80 callsubr
        </CharString>
        <CharString name="ohungarumlaut">
          -44 callsubr
          49 752 -231 -1 callgsubr
          130 523 -105 callgsubr
          hintmask 00101000
          505 681 -91 callsubr
        </CharString>
        <CharString name="omacron">
          -57 callgsubr
          301 136 -31 callsubr
          -33 637 -34 -1 callgsubr
          130 523 -105 callgsubr
          hintmask 00101000
          -24 842 -92 callgsubr
        </CharString>
        <CharString name="one">
          -275 21 -21 hstem
          450 173 vstem
          450 hmoveto
          173 1318 -137 hlineto
          0 -111 -57 -144 -56 vhcurveto
          0 7 -91 52 -29 vhcurveto
          71 18 89 42 0 vvcurveto
          endchar
        </CharString>
        <CharString name="onehalf">
          403 1 101 548 102 621 -20 hstemhm
          389 121 788 128 hintmask 00110000
          -60 callsubr
          hintmask 11001000
          23 -1416 rmoveto
          483 hlineto
          18 31 -6 95 -81 callgsubr
          -190 -25 -152 vhcurveto
          203 202 115 103 130 vvcurveto
          143 -85 72 -148 -143 -102 -75 0 0 5 -52 41 -39 vhcurveto
          0 78 64 124 66 36 -43 -81 -95 -52 -39 -291 -302 vhcurveto
          endchar
        </CharString>
        <CharString name="onequarter">
          403 21 -21 169 93 1111 -20 hstem
          389 121 692 121 vstem
          -60 callsubr
          -98 -61 callsubr
          endchar
        </CharString>
        <CharString name="onesuperior">
          -273 919 733 hstem
          389 121 vstem
          389 919 rmoveto
          121 733 -94 hlineto
          0 -83 -43 -109 -42 vhcurveto
          0 -3 -70 49 -26 vhcurveto
          53 14 66 29 0 vvcurveto
          endchar
        </CharString>
        <CharString name="ordfeminine">
          -274 696 100 -87 32 262 86 194 97 hstemhm
          186 121 256 118 hintmask 00000000
          hintmask 10111100
          385 696 rmoveto
          103 48 58 0 hvcurveto
          40 hlineto
          50 -45 rlineto
          120 32 hlineto
          hintmask 01111100
          -65 65 rlineto
          357 vlineto
          140 -53 77 -186 -117 -100 -49 0 0 5 -47 27 -44 vhcurveto
          0 72 43 106 96 32 -41 -98 vhcurveto
          -50 vlineto
          -159 -9 rlineto
          -138 -7 -80 -50 -139 vvcurveto
          hintmask 10111100
          -114 78 -79 121 vhcurveto
          43 100 rmoveto
          -73 -48 22 78 56 26 41 84 5 hvcurveto
          146 10 rlineto
          -166 vlineto
          0 -49 -46 -86 vhcurveto
          endchar
        </CharString>
        <CharString name="ordmasculine">
          -104 696 101 488 96 hstem
          214 125 340 125 vstem
          511 696 rmoveto
          181 112 129 224 222 -110 110 -183 -177 -120 -118 -224 -223 110 -120 187 hvcurveto
          101 vmoveto
          -119 -53 88 154 142 53 104 119 119 49 -83 -153 -142 -49 -110 -119 hvcurveto
          endchar
        </CharString>
        <CharString name="oslash">
          66 -159 1344 -1205 143 804 137 -31 callsubr
          -107 769 -92 182 hintmask 10001000
          205 -96 rmoveto
          54 -53 57 -10 0 vvcurveto
          139 271 rlineto
          24 vlineto
          366 717 21 15 132 255 rlineto
          -40 53 -69 9 0 vvcurveto
          -128 -251 rlineto
          -21 vlineto
          -370 -717 -18 -14 rlineto
          hintmask 01110100
          -219 341 -105 callgsubr
          endchar
        </CharString>
        <CharString name="otilde">
          -57 callgsubr
          186 -45 callgsubr
          130 182 -48 666 -48 182 hintmask 11001010
          130 523 -105 callgsubr
          hintmask 00000000
          34 759 -93 callsubr
          hintmask 00010100
          -87 callsubr
          hintmask 00100100
          -61 callgsubr
        </CharString>
        <CharString name="p">
          66 -20 132 -91 -47 callgsubr
          hstemhm
          213 172 528 182 hintmask 00000000
          hintmask 10011100
          -12 callgsubr
          hintmask 01011100
          -4 callgsubr
          hintmask 10011100
          -63 hlineto
          -81 71 rlineto
          -152 hlineto
          hintmask 10101100
          14 callgsubr
          hintmask 10011100
          -41 callgsubr
          endchar
        </CharString>
        <CharString name="paragraph">
          237 1207 151 hstem
          630 173 204 183 vstem
          630 -160 rmoveto
          173 1367 204 -1367 183 1518 -597 hlineto
          -257 -177 -170 -252 -228 164 -189 307 hvcurveto
          endchar
        </CharString>
        <CharString name="parenleft">
          -445 -283 1900 hstem
          130 440 vstem
          482 -283 rmoveto
          0 73 24 15 54 vhcurveto
          -230 333 -49 279 261 vvcurveto
          261 49 277 230 333 vhcurveto
          -15 54 -73 24 0 vvcurveto
          -266 -298 -86 -352 -300 vvcurveto
          -300 86 -352 266 -298 vhcurveto
          endchar
        </CharString>
        <CharString name="parenright">
          -445 -283 1900 hstem
          114 440 vstem
          202 1617 rmoveto
          0 -73 -24 -15 -54 vhcurveto
          230 -333 49 -279 -261 vvcurveto
          -261 -49 -277 -230 -333 vhcurveto
          15 -54 73 -24 0 vvcurveto
          266 298 86 352 300 vvcurveto
          300 -86 352 -266 298 vhcurveto
          endchar
        </CharString>
        <CharString name="partialdiff">
          97 -14 141 -117 -21 813 147 512 140 hstemhm
          80 187 651 14 hintmask 01111100
          80 424 rmoveto
          -4 -280 193 -139 208 -16 294 -26 229 162 73 421 20 123 7 120 -11 118 rrcurveto
          433 -40 -194 261 -361 hhcurveto
          -112 -99 -29 -59 -99 hvcurveto
          45 -119 rlineto
          43 88 79 24 83 hhcurveto
          289 119 -284 -272 25 hvcurveto
          3 -31 2 -31 1 -31 -163 164 -242 1 -159 -81 -185 -95 -80 -192 -9 -185 rrcurveto
          187 2 rmoveto
          -6 144 77 150 128 53 127 55 171 -17 148 -150 -4 -33 -4 -33 -5 -32 rrcurveto
          hintmask 10111100
          -51 -302 -130 -148 -216 14 rrcurveto
          -144 9 -91 121 169 vvcurveto
          endchar
        </CharString>
        <CharString name="percent">
          403 -46 callsubr
          hintmask 0000000000000000
          hintmask 1110111110000000
          418 783 rmoveto
          -68 callgsubr
          hvcurveto
          hintmask 1111011110000000
          -63 callgsubr
          443 -616 rmoveto
          -197 78 23 callgsubr
          -68 callgsubr
          vhcurveto
          125 hmoveto
          -63 callsubr
          -106 -26 79 108 vhcurveto
          endchar
        </CharString>
        <CharString name="period">
          20 -21 hstem
          2 callgsubr
          vstem
          128 128 -15 callsubr
          endchar
        </CharString>
        <CharString name="periodcentered">
          425 257 hstem
          2 callgsubr
          vstem
          256 425 -48 callsubr
        </CharString>
        <CharString name="perthousand">
          1089 -46 callsubr
          160 125 258 127 hintmask 0000000000000000
          hintmask 1000101000000000
          418 783 rmoveto
          -68 callgsubr
          hvcurveto
          hintmask 1111011111100000
          -63 callgsubr
          1113 -616 rmoveto
          -197 78 23 callgsubr
          -68 callgsubr
          vhcurveto
          -670 hmoveto
          -197 78 23 callgsubr
          -68 callgsubr
          vhcurveto
          795 hmoveto
          -63 callsubr
          -106 -26 79 108 vhcurveto
          -670 hmoveto
          -63 callsubr
          -106 -26 79 108 vhcurveto
          endchar
        </CharString>
        <CharString name="pi">
          227 1 -21 1029 146 hstem
          399 161 289 172 vstem
          236 49 rmoveto
          22 -41 57 -21 78 -7 86 194 66 336 15 499 rrcurveto
          289 -673 hlineto
          -197 22 -113 27 -46 vhcurveto
          64 6 48 24 43 30 rrcurveto
          -21 31 -11 114 151 vvcurveto
          673 178 vlineto
          9 148 -794 -2 rlineto
          -166 -95 -59 0 0 4 -69 34 -63 hvcurveto
          0 93 50 115 vhcurveto
          -23 -529 -36 -255 -104 -181 rrcurveto
          endchar
        </CharString>
        <CharString name="plus">
          7 callsubr
          691 153 vstem
          15 callgsubr
          469 -503 153 503 469 153 -469 494 -153 -494 -469 hlineto
          endchar
        </CharString>
        <CharString name="plusminus">
          406 0 153 538 153 hstem
          692 153 vstem
          222 691 rmoveto
          470 -355 153 355 468 153 -468 492 -153 -492 -470 hlineto
          -844 vmoveto
          8 callgsubr
          endchar
        </CharString>
        <CharString name="product">
          408 1356 14 -14 145 hstem
          332 177 515 175 233 13 vstem
          332 -203 rmoveto
          177 1558 hlineto
          62 60 1 51 hhcurveto
          83 130 -1 -1 129 hvcurveto
          -1557 175 1555 vlineto
          132 -1 101 -1 0 vvcurveto
          22 74 -12 77 0 vvcurveto
          -1344 hlineto
          -17 -77 12 -76 -81 callgsubr
          107 2 132 2 vhcurveto
          endchar
        </CharString>
        <CharString name="q">
          66 -20 142 -51 51 811 131 hstemhm
          132 182 527 8 callsubr
          hintmask 10111000
          132 509 rmoveto
          -371 205 -158 240 133 89 -6 callgsubr
          42 -466 hlineto
          hintmask 01111000
          173 1419 hlineto
          27 -126 -91 13 -126 hhcurveto
          -294 -245 -188 -367 hvcurveto
          182 18 rmoveto
          hintmask 10111000
          258 150 148 221 116 40 -41 0 vhcurveto
          -706 vlineto
          hintmask 01111000
          0 -91 -64 -105 -205 -126 127 278 vhcurveto
          endchar
        </CharString>
        <CharString name="question">
          66 20 -21 1171 153 hstemhm
          470 256 -195 139 184 188 hintmask 00000000
          hintmask 11011000
          537 415 rmoveto
          43 -10 46 0 44 10 rrcurveto
          143 33 33 104 55 vhcurveto
          136 72 99 97 184 vvcurveto
          210 -171 114 -235 -252 -125 -93 0 0 6 -70 51 -74 vhcurveto
          0 109 84 180 154 95 -57 -145 -83 -56 -70 -129 -71 vhcurveto
          -127 -70 -25 -54 20 -205 rrcurveto
          hintmask 11101000
          -67 -287 -15 callsubr
          endchar
        </CharString>
        <CharString name="questiondown">
          66 -392 153 1150 21 hstemhm
          135 188 2 callgsubr
          -200 139 hintmask 00000000
          hintmask 11101000
          640 516 rmoveto
          -43 10 -46 0 -44 -10 rrcurveto
          -143 -33 -33 -104 -55 vhcurveto
          -136 -72 -99 -97 -184 vvcurveto
          -210 171 -114 235 252 125 93 0 0 -6 70 -51 74 vhcurveto
          0 -109 -84 -180 -154 -95 57 145 83 56 70 129 71 vhcurveto
          127 70 25 54 -20 205 rrcurveto
          hintmask 11110000
          67 287 rmoveto
          71 -57 58 -71 -71 -57 -58 -71 -71 57 -57 71 71 57 57 71 vhcurveto
          endchar
        </CharString>
        <CharString name="quotedbl">
          -275 1220 430 hstemhm
          157 196 147 196 hintmask 11000000
          253 1220 rmoveto
          -59 callsubr
          hintmask 10100000
          343 hmoveto
          -59 callsubr
          endchar
        </CharString>
        <CharString name="quotedblbase">
          -275 -255 425 hstem
          84 661 vstem
          425 -205 rmoveto
          36 -48 71 -2 0 vvcurveto
          -67 callgsubr
          -341 hmoveto
          36 -48 71 -2 0 vvcurveto
          -67 callgsubr
          endchar
        </CharString>
        <CharString name="quotedblleft">
          -275 1229 425 hstem
          96 661 vstem
          437 1296 rmoveto
          -71 55 126 4 4 hhcurveto
          -54 callsubr
          -156 -67 rmoveto
          -54 callsubr
          -71 55 126 4 4 hhcurveto
          endchar
        </CharString>
        <CharString name="quotedblright">
          -275 3 callgsubr
          425 hstem
          96 661 vstem
          544 3 callgsubr
          rmoveto
          -67 callgsubr
          36 -48 71 -2 0 vvcurveto
          -341 hmoveto
          -67 callgsubr
          36 -48 71 -2 0 vvcurveto
          endchar
        </CharString>
        <CharString name="quoteleft">
          1229 425 hstem
          96 320 vstem
          281 1229 rmoveto
          -54 callsubr
          -71 55 126 4 4 hhcurveto
          endchar
        </CharString>
        <CharString name="quoteright">
          1227 425 hstem
          96 320 vstem
          204 1227 rmoveto
          0 181 137 -75 callgsubr
          -5 hhcurveto
          -8 -2 callgsubr
          37 -48 71 -2 0 vvcurveto
          endchar
        </CharString>
        <CharString name="quotesinglbase">
          -255 425 hstem
          106 300 vstem
          106 -205 rmoveto
          37 -48 51 -2 -81 callgsubr
          181 137 31 222 vhcurveto
          70 -54 -105 -4 -4 hhcurveto
          -9 -2 callgsubr
          endchar
        </CharString>
        <CharString name="quotesingle">
          1220 430 hstem
          158 196 vstem
          254 1220 rmoveto
          -59 callsubr
          endchar
        </CharString>
        <CharString name="r">
          -4 callsubr
          hstem
          225 172 vstem
          -83 callsubr
          endchar
        </CharString>
        <CharString name="racute">
          -4 callsubr
          -42 callgsubr
          225 172 -108 383 hintmask 11010000
          -83 callsubr
          hintmask 00101000
          141 293 rmoveto
          306 288 -18 38 -88 74 -96 callsubr
          endchar
        </CharString>
        <CharString name="radical">
          237 0 120 -99 -21 715 135 hstemhm
          84 344 -344 1264 hintmask 10101000
          595 hmoveto
          211 hlineto
          542 1700 rlineto
          -166 hlineto
          -453 -1481 -28 -99 -30 99 rlineto
          hintmask 01110000
          -243 631 rlineto
          -340 hlineto
          0 -10 -57 10 -78 vhcurveto
          210 hlineto
          endchar
        </CharString>
        <CharString name="rcaron">
          -4 callsubr
          129 -35 callsubr
          94 684 -553 172 hintmask 11001000
          -83 callsubr
          hintmask 00110000
          86 282 -85 callsubr
        </CharString>
        <CharString name="rcommaaccent">
          -277 -25 callgsubr
          892 172 hstemhm
          125 310 -210 172 hintmask 01101000
          -83 callsubr
          hintmask 10010000
          27 -1066 -103 callsubr
        </CharString>
        <CharString name="registered">
          578 3 90 521 96 245 99 192 90 hstem
          186 90 325 126 266 138 299 -69 callsubr
          325 -376 rmoveto
          126 326 hlineto
          0 46 -6 65 vhcurveto
          18 hlineto
          158 -320 rlineto
          142 hlineto
          -183 335 rlineto
          107 33 51 80 99 vvcurveto
          129 -80 84 -159 vhcurveto
          -291 hlineto
          126 -338 rmoveto
          239 129 vlineto
          88 49 -42 -75 -88 -64 -40 -104 -62 -36 6 0 hvcurveto
          endchar
        </CharString>
        <CharString name="ring">
          -591 1171 9 callgsubr
          hstem
          65 -24 callsubr
          vstem
          295 1171 -88 callgsubr
        </CharString>
        <CharString name="ring.cap">
          -591 1493 9 callgsubr
          hstem
          13 -24 callsubr
          vstem
          243 1493 -88 callgsubr
        </CharString>
        <CharString name="s">
          -32 callgsubr
          hstem
          1 callgsubr
          340 184 vstem
          -105 callsubr
          endchar
        </CharString>
        <CharString name="sacute">
          -32 callgsubr
          -42 callgsubr
          1 callgsubr
          24 383 -67 184 hintmask 11010100
          -105 callsubr
          hintmask 00101000
          285 1175 rmoveto
          306 288 -18 38 -88 74 -96 callsubr
          endchar
        </CharString>
        <CharString name="scaron">
          -32 callgsubr
          129 -35 callsubr
          1 callgsubr
          -171 684 -173 184 hintmask 11010100
          -105 callsubr
          hintmask 00101000
          230 1164 -85 callsubr
        </CharString>
        <CharString name="scedilla">
          -106 -39 callsubr
          169 148 799 137 hstemhm
          1 callgsubr
          96 144 100 184 hintmask 01110100
          -105 callsubr
          hintmask 10001000
          267 11 -86 callgsubr
        </CharString>
        <CharString name="scircumflex">
          -32 callgsubr
          450 -35 callsubr
          1 callgsubr
          -171 684 -173 184 hintmask 11010100
          -105 callsubr
          hintmask 00101000
          13 1164 -95 callgsubr
        </CharString>
        <CharString name="scommaaccent">
          -106 -38 callgsubr
          135 148 799 137 hstemhm
          1 callgsubr
          -26 310 56 184 hintmask 01110100
          -105 callsubr
          hintmask 10001000
          285 -184 -103 callsubr
        </CharString>
        <CharString name="section">
          -105 -204 134 74 -21 306 86 447 87 340 134 hstemhm
          130 184 -149 180 -76 64 356 180 -170 64 -53 184 hintmask 1111110010000000
          188 -17 rmoveto
          -31 -64 5 -75 -81 callgsubr
          136 -48 145 262 164 106 223 vhcurveto
          hintmask 1111110001000000
          76 -35 62 -71 50 vhcurveto
          27 vlineto
          hintmask 1111101000100000
          44 21 87 58 124 vvcurveto
          141 -62 52 -267 154 vhcurveto
          -146 84 -74 42 98 vvcurveto
          107 99 28 122 156 71 -44 0 vhcurveto
          37 55 8 72 -81 callgsubr
          -93 51 -174 -250 -156 -103 -217 vhcurveto
          hintmask 1111100110000000
          -90 45 -63 59 -37 vhcurveto
          -27 vlineto
          hintmask 1111110010000000
          -49 -22 -90 -57 -121 vvcurveto
          -131 66 -62 273 -154 vhcurveto
          147 -83 73 -44 -90 vvcurveto
          -131 -107 -21 -134 -162 -98 53 0 vhcurveto
          126 684 rmoveto
          56 22 48 43 34 vhcurveto
          hintmask 1111110000100000
          317 -160 14 -34 -99 vvcurveto
          -48 -20 -49 -37 -32 vhcurveto
          -326 170 -13 40 74 vvcurveto
          endchar
        </CharString>
        <CharString name="semicolon">
          -251 425 588 -21 hstemhm
          60 320 -252 256 hintmask 10100000
          -47 callsubr
          hintmask 01010000
          68 1071 -15 callsubr
          endchar
        </CharString>
        <CharString name="seven">
          66 1182 146 hstem
          174 847 vstem
          261 35 rmoveto
          0 87 -58 107 -4 vhcurveto
          235 649 242 454 89 174 rrcurveto
          -14 56 -21 14 0 vvcurveto
          -257 2 -551 6 -81 callgsubr
          -18 -116 38 -55 vhcurveto
          0 304 25 318 vhcurveto
          0 -263 -452 -296 -695 vhcurveto
          endchar
        </CharString>
        <CharString name="six">
          236 -20 152 586 141 329 150 hstem
          265 194 468 193 vstem
          265 523 rmoveto
          -322 91 -221 341 251 172 168 280 310 -156 121 -211 -152 -121 -99 0 vhcurveto
          -23 12 rlineto
          226 9 91 190 202 hhcurveto
          159 76 -50 0 hvcurveto
          47 73 4 70 -81 callgsubr
          -112 57 -194 -288 -186 -253 -562 vhcurveto
          194 -95 rmoveto
          64 4 45 5 47 vhcurveto
          65 49 72 69 98 hhcurveto
          153 87 -99 -191 -169 -59 -127 -175 -170 -64 146 150 hvcurveto
          endchar
        </CharString>
        <CharString name="slash">
          -275 1385 -20 hstem
          47 759 vstem
          47 -178 rmoveto
          57 -51 77 -7 0 vvcurveto
          625 1564 rlineto
          -43 51 -89 6 0 vvcurveto
          endchar
        </CharString>
        <CharString name="space">
          -444 endchar
        </CharString>
        <CharString name="sterling">
          66 -20 172 -104 172 407 143 509 141 hstemhm
          276 183 -129 172 296 9 hintmask 01110110
          180 61 rmoveto
          11 -25 44 -41 47 -13 rrcurveto
          38 63 75 28 74 hhcurveto
          hintmask 10110110
          119 75 -68 150 hhcurveto
          155 133 209 0 0 -30 50 -71 28 hvcurveto
          0 -72 -115 -87 vhcurveto
          hintmask 01110110
          -122 -59 68 -115 hhcurveto
          -96 -86 -61 0 hvcurveto
          -22 23 rlineto
          0 136 150 262 vvcurveto
          11 0 11 -1 11 vhcurveto
          297 -25 callsubr
          -314 hlineto
          hintmask 10111010
          -12 81 -13 91 114 vvcurveto
          140 52 83 161 95 59 -23 -46 64 vhcurveto
          61 48 15 64 -81 callgsubr
          -95 98 -188 -295 -112 -176 -182 -120 14 -92 14 -80 vhcurveto
          -163 -24 callgsubr
          185 hlineto
          hintmask 10110110
          2 -23 2 -22 -22 vvcurveto
          -239 -150 -260 0 vhcurveto
          endchar
        </CharString>
        <CharString name="summation">
          67 -180 140 1432 141 hstem
          960 11 vstem
          58 -28 rmoveto
          -152 911 vlineto
          37 87 -15 67 -81 callgsubr
          -391 -14 -337 vhcurveto
          531 690 -505 742 rlineto
          342 329 -10 0 hvcurveto
          24 95 -24 56 0 vvcurveto
          -872 -151 hlineto
          503 -729 rlineto
          endchar
        </CharString>
        <CharString name="t">
          -277 6 callgsubr
          hstem
          246 15 callsubr
          vstem
          246 280 -66 callsubr
        </CharString>
        <CharString name="tbar">
          -277 -20 146 385 136 224 143 hstemhm
          93 615 -462 15 callsubr
          hintmask 01010000
          102 511 rmoveto
          594 hlineto
          15 43 0 51 -9 42 rrcurveto
          -600 hlineto
          -13 -42 1 -48 12 -46 rrcurveto
          hintmask 10101100
          144 -231 -66 callsubr
        </CharString>
        <CharString name="tcaron">
          235 6 callgsubr
          560 21 hstemhm
          246 172 237 171 -125 22 hintmask 00101000
          626 1175 rmoveto
          51 -33 68 22 -81 callgsubr
          115 189 -44 220 vhcurveto
          -74 48 -107 -45 -5 -2 rrcurveto
          58 -189 -62 -210 0 vvcurveto
          hintmask 11010100
          -380 -895 -66 callsubr
        </CharString>
        <CharString name="tcommaaccent">
          -277 -38 callgsubr
          135 146 745 143 hstemhm
          240 310 -304 15 callsubr
          hintmask 01101100
          246 280 -94 callsubr
          hintmask 10010000
          121 -1026 -103 callsubr
        </CharString>
        <CharString name="thorn">
          -16 callgsubr
          hintmask 10111000
          365 -10 rmoveto
          -6 54 67 -4 80 hhcurveto
          273 234 184 368 408 -194 124 -207 hvcurveto
          hintmask 11011000
          -166 -99 -91 0 hvcurveto
          -43 447 -172 -1815 173 hlineto
          -1 537 -60 callgsubr
          endchar
        </CharString>
        <CharString name="three">
          66 -20 1358 hstem
          166 863 vstem
          166 56 rmoveto
          0 173 -76 213 290 187 136 267 166 -116 106 -153 32 vhcurveto
          11 vlineto
          136 43 92 93 166 vvcurveto
          227 -152 111 -264 -201 -164 -77 0 0 8 -73 49 -71 vhcurveto
          0 121 71 167 142 101 -75 -130 -149 -101 -74 -120 vhcurveto
          -112 hlineto
          0 -5 -24 -36 vvcurveto
          -25 4 -29 7 -29 vhcurveto
          106 hlineto
          186 76 -108 -105 -177 -140 -97 -164 -178 -130 71 0 hvcurveto
          -48 -73 -10 -72 0 vvcurveto
          endchar
        </CharString>
        <CharString name="threequarters">
          403 21 -21 169 93 591 258 97 222 -57 -20 hstemhm
          28 506 718 121 hintmask 11001010
          385 55 -67 callsubr
          -48 -61 callsubr
          hintmask 00110100
          -1143 39 -74 callsubr
        </CharString>
        <CharString name="threesuperior">
          66 995 258 97 222 hstem
          344 506 vstem
          344 943 -74 callsubr
        </CharString>
        <CharString name="tilde">
          -218 1250 -45 callgsubr
          116 666 hintmask 00000000
          hintmask 01100000
          198 1282 -93 callsubr
          hintmask 10100000
          -87 callsubr
          hintmask 01100000
          -61 callgsubr
        </CharString>
        <CharString name="tilde.cap">
          -444 1586 -45 callgsubr
          10 666 hintmask 00000000
          hintmask 01100000
          92 1618 -93 callsubr
          hintmask 10100000
          -87 callsubr
          hintmask 01100000
          -61 callgsubr
        </CharString>
        <CharString name="trademark">
          919 679 140 397 142 -124 124 hstemhm
          350 149 266 9 hintmask 00000000
          hintmask 00111000
          908 509 rmoveto
          149 hlineto
          23 707 rlineto
          13 hlineto
          220 -537 rlineto
          156 hlineto
          217 537 rlineto
          12 hlineto
          26 -707 rlineto
          hintmask 11011000
          148 hlineto
          -62 849 rlineto
          -210 hlineto
          -201 -539 rlineto
          -17 hlineto
          -201 539 rlineto
          -210 hlineto
          -621 -849 rmoveto
          149 725 hlineto
          153 113 -4 0 hvcurveto
          15 53 -9 75 0 vvcurveto
          -679 hlineto
          -12 -55 8 -74 -81 callgsubr
          113 5 149 vhcurveto
          endchar
        </CharString>
        <CharString name="two">
          66 0 144 1048 146 hstem
          802 192 vstem
          191 hmoveto
          789 hlineto
          33 54 -12 118 -81 callgsubr
          -321 -28 -271 vhcurveto
          361 359 224 227 231 vvcurveto
          254 -151 123 -264 -201 -164 -97 0 0 10 -71 47 -73 vhcurveto
          0 121 95 167 141 102 -95 -155 -170 -77 -93 -534 -537 vhcurveto
          endchar
        </CharString>
        <CharString name="twosuperior">
          66 919 101 548 102 hstem
          704 128 vstem
          361 919 rmoveto
          483 hlineto
          18 31 -6 95 -81 callgsubr
          -190 -25 -152 vhcurveto
          203 202 115 103 130 vvcurveto
          143 -85 72 -148 -143 -102 -75 0 0 5 -52 41 -39 vhcurveto
          0 78 64 124 66 36 -43 -81 -95 -52 -39 -291 -302 vhcurveto
          endchar
        </CharString>
        <CharString name="u">
          66 -76 callgsubr
          -18 callgsubr
          452 -35 callgsubr
          hintmask 10011000
          -84 callgsubr
          hintmask 01111000
          -84 callsubr
          hintmask 10011000
          -87 callgsubr
          endchar
        </CharString>
        <CharString name="uacute">
          66 -76 callgsubr
          1082 411 -18 callgsubr
          82 383 -13 -95 callsubr
          331 182 rmoveto
          306 288 -18 38 -88 74 -96 callsubr
          endchar
        </CharString>
        <CharString name="ubreve">
          66 -76 callgsubr
          1068 152 -18 callgsubr
          -101 -52 callsubr
          -103 -35 callgsubr
          hintmask 10001001
          -84 callgsubr
          hintmask 01101001
          -84 callsubr
          hintmask 10001001
          -87 callgsubr
          hintmask 00010110
          399 168 -97 callgsubr
        </CharString>
        <CharString name="ucircumflex">
          66 -76 callgsubr
          1392 116 -18 callgsubr
          -113 684 -119 -95 callsubr
          59 171 -95 callgsubr
        </CharString>
        <CharString name="udieresis">
          66 -76 callgsubr
          -18 callgsubr
          452 -35 callgsubr
          hintmask 10011000
          -84 callgsubr
          hintmask 01111000
          -84 callsubr
          hintmask 10011000
          -87 callgsubr
          hintmask 00000000
          619 203 -91 callgsubr
          -442 -92 callsubr
        </CharString>
        <CharString name="ugrave">
          66 -76 callgsubr
          1082 411 -18 callgsubr
          1 383 68 -95 callsubr
          479 182 rmoveto
          28 11 37 34 12 28 -240 -80 callsubr
        </CharString>
        <CharString name="uhungarumlaut">
          66 -76 callgsubr
          1082 411 -18 callgsubr
          -9 752 -291 -95 callsubr
          619 182 -91 callsubr
        </CharString>
        <CharString name="umacron">
          66 -76 callgsubr
          1243 136 -18 callgsubr
          -91 637 -94 -95 callsubr
          90 343 -92 callgsubr
        </CharString>
        <CharString name="underscore">
          -105 -340 132 hstem
          -40 1103 vstem
          -40 -208 rmoveto
          -132 1103 132 vlineto
          endchar
        </CharString>
        <CharString name="uni0001">
          -26 callgsubr
        </CharString>
        <CharString name="uni0002">
          -26 callgsubr
        </CharString>
        <CharString name="uni0003">
          -26 callgsubr
        </CharString>
        <CharString name="uni0004">
          -26 callgsubr
        </CharString>
        <CharString name="uni0005">
          -26 callgsubr
        </CharString>
        <CharString name="uni0006">
          -26 callgsubr
        </CharString>
        <CharString name="uni0007">
          -26 callgsubr
        </CharString>
        <CharString name="uni0008">
          -26 callgsubr
        </CharString>
        <CharString name="uni0009">
          -26 callgsubr
        </CharString>
        <CharString name="uni0010">
          -26 callgsubr
        </CharString>
        <CharString name="uni0011">
          -26 callgsubr
        </CharString>
        <CharString name="uni0012">
          -26 callgsubr
        </CharString>
        <CharString name="uni0013">
          -26 callgsubr
        </CharString>
        <CharString name="uni0014">
          -26 callgsubr
        </CharString>
        <CharString name="uni0015">
          -26 callgsubr
        </CharString>
        <CharString name="uni0016">
          -26 callgsubr
        </CharString>
        <CharString name="uni0017">
          -26 callgsubr
        </CharString>
        <CharString name="uni0018">
          -26 callgsubr
        </CharString>
        <CharString name="uni0019">
          -26 callgsubr
        </CharString>
        <CharString name="uni00AD">
          100 endchar
        </CharString>
        <CharString name="uni1E02">
          4 callsubr
          -7 callgsubr
          153 232 93 193 -143 193 hintmask 00000000
          hintmask 11101001
          -44 callgsubr
          hintmask 11101010
          -26 callsubr
          hintmask 11101001
          -22 callgsubr
          hintmask 11101010
          -12 callsubr
          hintmask 00010100
          11 1378 -91 callgsubr
          endchar
        </CharString>
        <CharString name="uni1E03">
          67 -20 132 811 50 -50 141 -18 callsubr
          192 172 228 232 67 182 hintmask 00000000
          hintmask 10101010
          -45 callsubr
          hintmask 11001010
          -13 callgsubr
          hintmask 10101010
          172 -1278 -60 callgsubr
          hintmask 00010100
          343 1083 -91 callgsubr
          endchar
        </CharString>
        <CharString name="uni1E0A">
          11 callsubr
          232 -69 callgsubr
          210 232 199 194 hintmask 11010100
          -78 callsubr
          hintmask 00101000
          110 1378 -91 callgsubr
          endchar
        </CharString>
        <CharString name="uni1E0B">
          67 -76 callgsubr
          811 131 -20 20 -18 callsubr
          131 182 82 232 213 173 hintmask 0000000000000000
          hintmask 1001001010000000
          131 493 -51 callsubr
          hintmask 1000101010000000
          62 hlineto
          hintmask 1001001010000000
          -34 callsubr
          hintmask 0111001010000000
          -49 callgsubr
          hintmask 1001001010000000
          -77 callgsubr
          hintmask 0000010100000000
          197 732 -91 callgsubr
          endchar
        </CharString>
        <CharString name="uni1E1E">
          12 callsubr
          -7 callgsubr
          75 232 hintmask 11101000
          -55 callgsubr
          hintmask 00010100
          373 172 -91 callgsubr
          endchar
        </CharString>
        <CharString name="uni1E1F">
          -446 -34 callgsubr
          125 -23 callsubr
          196 232 -202 172 hintmask 11100100
          -93 callgsubr
          hintmask 00011000
          85 674 -91 callgsubr
          endchar
        </CharString>
        <CharString name="uni1E40">
          5 callgsubr
          172 -23 callsubr
          111 1313 -773 232 hintmask 11101000
          -64 callsubr
          hintmask 00010100
          594 172 -91 callgsubr
          endchar
        </CharString>
        <CharString name="uni1E41">
          576 21 -47 callgsubr
          -18 callsubr
          209 172 377 232 -202 172 390 -35 callgsubr
          hintmask 10101011
          -21 callgsubr
          hintmask 11001011
          -38 callsubr
          hintmask 10101011
          -55 callsubr
          hintmask 00010100
          664 314 -91 callgsubr
          endchar
        </CharString>
        <CharString name="uni1E56">
          66 21 -21 519 148 540 151 -7 callgsubr
          143 232 133 194 hintmask 11101010
          -64 callgsubr
          hintmask 00010100
          258 853 -91 callgsubr
          endchar
        </CharString>
        <CharString name="uni1E57">
          66 -20 132 -91 -47 callgsubr
          -18 callsubr
          213 172 180 232 116 182 hintmask 00000000
          hintmask 10010101
          -12 callgsubr
          hintmask 01010101
          -4 callgsubr
          hintmask 10010101
          -63 hlineto
          -81 71 rlineto
          -152 hlineto
          hintmask 10100101
          14 callgsubr
          hintmask 10010101
          -41 callgsubr
          hintmask 00001010
          295 1093 -91 callgsubr
          endchar
        </CharString>
        <CharString name="uni1E60">
          -33 callgsubr
          145 232 -10 callgsubr
          117 232 119 203 hintmask 11010100
          -106 callgsubr
          hintmask 00101000
          437 1487 -91 callgsubr
          endchar
        </CharString>
        <CharString name="uni1E61">
          -32 callgsubr
          -18 callsubr
          1 callgsubr
          54 232 54 184 hintmask 11010100
          -105 callsubr
          hintmask 00101000
          353 1196 -91 callgsubr
          endchar
        </CharString>
        <CharString name="uni1E6A">
          -3 callsubr
          172 -23 callsubr
          481 232 -214 0 callgsubr
          hintmask 11001100
          -82 callgsubr
          hintmask 00110000
          97 317 -91 callgsubr
          endchar
        </CharString>
        <CharString name="uni1E6B">
          -277 6 callgsubr
          422 -23 callsubr
          218 232 -204 15 callsubr
          hintmask 11001100
          246 280 -94 callsubr
          hintmask 00110000
          87 565 -91 callgsubr
          endchar
        </CharString>
        <CharString name="uogonek">
          66 -39 callsubr
          169 142 -101 -21 71 51 -18 callgsubr
          400 138 -86 172 hintmask 10100100
          765 -27 callsubr
          82 -79 169 -81 callsubr
          -93 -36 41 49 61 69 38 119 hvcurveto
          -199 37 -11 callsubr
          hintmask 00000000
          -572 500 rmoveto
          -213 111 -138 215 152 103 -6 callgsubr
          hintmask 01001010
          -84 callsubr
          hintmask 00111010
          -87 callgsubr
          endchar
        </CharString>
        <CharString name="uring">
          66 -76 callgsubr
          1049 9 callgsubr
          -18 callgsubr
          -4 -24 callsubr
          -8 172 hintmask 0000000000000000
          hintmask 1000010010000000
          -84 callgsubr
          hintmask 0110010010000000
          -84 callsubr
          hintmask 1000010010000000
          -87 callgsubr
          hintmask 0001101100000000
          398 149 -88 callgsubr
        </CharString>
        <CharString name="utilde">
          66 -76 callgsubr
          1128 -45 callgsubr
          193 172 -106 666 -108 -35 callgsubr
          hintmask 10000101
          -84 callgsubr
          hintmask 01100101
          -84 callsubr
          hintmask 10000101
          -87 callgsubr
          hintmask 00000000
          148 260 -93 callsubr
          hintmask 00001010
          -87 callsubr
          hintmask 00010010
          -61 callgsubr
        </CharString>
        <CharString name="v">
          -104 16 callsubr
          hstem
          50 934 vstem
          377 hmoveto
          280 hlineto
          327 1022 rlineto
          -164 hlineto
          -280 -906 rlineto
          -33 hlineto
          -284 906 rlineto
          -173 hlineto
          endchar
        </CharString>
        <CharString name="w">
          -40 callgsubr
          hstem
          21 callgsubr
          vstem
          -89 callsubr
          endchar
        </CharString>
        <CharString name="wacute">
          -40 callgsubr
          182 -46 callgsubr
          21 callgsubr
          -911 383 hintmask 11010000
          -89 callsubr
          hintmask 00101000
          697 182 rmoveto
          306 288 -18 38 -88 74 -96 callsubr
          endchar
        </CharString>
        <CharString name="wcircumflex">
          -40 callgsubr
          492 -35 callsubr
          21 callgsubr
          -1106 684 hintmask 11010000
          -89 callsubr
          hintmask 00101000
          425 171 -95 callgsubr
        </CharString>
        <CharString name="wdieresis">
          -40 callgsubr
          hstemhm
          21 callgsubr
          vstemhm
          -89 callsubr
          985 203 -91 callgsubr
          -442 -92 callsubr
        </CharString>
        <CharString name="wgrave">
          -40 callgsubr
          182 -46 callgsubr
          21 callgsubr
          -992 383 hintmask 11010000
          -89 callsubr
          hintmask 00101000
          845 182 rmoveto
          28 11 37 34 12 28 -240 -80 callsubr
        </CharString>
        <CharString name="x">
          -107 21 -21 hstem
          50 921 vstem
          50 hmoveto
          182 hlineto
          253 400 rlineto
          23 hlineto
          279 -400 rlineto
          184 hlineto
          -365 515 351 507 rlineto
          -183 hlineto
          -247 -369 rlineto
          -23 hlineto
          -258 369 rlineto
          -184 hlineto
          347 -488 rlineto
          endchar
        </CharString>
        <CharString name="y">
          -107 16 callsubr
          hstem
          39 934 vstem
          -82 callsubr
          endchar
        </CharString>
        <CharString name="yacute">
          -107 16 callsubr
          1088 -46 callgsubr
          39 934 -612 383 hintmask 10100000
          -82 callsubr
          hintmask 01010000
          399 182 rmoveto
          306 288 -18 38 -88 74 -96 callsubr
          endchar
        </CharString>
        <CharString name="ycircumflex">
          -107 16 callsubr
          1398 -35 callsubr
          39 934 -807 684 hintmask 10100000
          -82 callsubr
          hintmask 01010000
          127 171 -95 callgsubr
        </CharString>
        <CharString name="ydieresis">
          -107 0 -35 callsubr
          39 934 vstemhm
          -82 callsubr
          687 203 -91 callgsubr
          -442 -92 callsubr
        </CharString>
        <CharString name="yen">
          67 21 -21 199 143 167 143 hstem
          508 183 244 9 vstem
          262 199 rmoveto
          246 -199 183 199 244 -25 callsubr
          -244 167 244 -25 callsubr
          -175 hlineto
          338 706 rlineto
          -199 hlineto
          -284 -658 rlineto
          -36 hlineto
          -282 658 rlineto
          -199 hlineto
          341 -706 rlineto
          -177 -24 callgsubr
          246 -167 -246 -24 callgsubr
          endchar
        </CharString>
        <CharString name="ygrave">
          -107 16 callsubr
          1088 -46 callgsubr
          39 934 -693 383 hintmask 10100000
          -82 callsubr
          hintmask 01010000
          547 182 rmoveto
          28 11 37 34 12 28 -240 -80 callsubr
        </CharString>
        <CharString name="z">
          -28 callsubr
          hstem
          74 698 vstem
          74 hmoveto
          678 hlineto
          29 67 -10 80 -81 callgsubr
          -262 -12 -240 vhcurveto
          496 784 rlineto
          125 -650 vlineto
          0 -18 -75 18 -73 vhcurveto
          0 161 17 304 vhcurveto
          -506 -786 rlineto
          endchar
        </CharString>
        <CharString name="zacute">
          -28 callsubr
          160 -46 callgsubr
          74 698 -494 383 hintmask 11010000
          74 hmoveto
          678 hlineto
          29 67 -10 80 -81 callgsubr
          -262 -12 -240 vhcurveto
          496 784 rlineto
          125 -650 vlineto
          0 -18 -75 18 -73 vhcurveto
          0 161 17 304 vhcurveto
          -506 -786 rlineto
          hintmask 00101000
          281 1077 rmoveto
          306 288 -18 38 -88 74 -96 callsubr
          endchar
        </CharString>
        <CharString name="zcaron">
          -28 callsubr
          149 -35 callsubr
          74 698 -689 684 hintmask 11010000
          74 hmoveto
          678 hlineto
          29 67 -10 80 -81 callgsubr
          -262 -12 -240 vhcurveto
          496 784 rlineto
          125 -650 vlineto
          0 -18 -75 18 -73 vhcurveto
          0 161 17 304 vhcurveto
          -506 -786 rlineto
          hintmask 00101000
          226 1066 -85 callsubr
        </CharString>
        <CharString name="zdotaccent">
          -28 callsubr
          181 -23 callsubr
          74 698 -464 232 hintmask 11010000
          74 hmoveto
          678 hlineto
          29 67 -10 80 -81 callgsubr
          -262 -12 -240 vhcurveto
          496 784 rlineto
          125 -650 vlineto
          0 -18 -75 18 -73 vhcurveto
          0 161 17 304 vhcurveto
          -506 -786 rlineto
          hintmask 00101000
          349 1098 -91 callgsubr
          endchar
        </CharString>
        <CharString name="zero">
          233 -20 142 1074 142 hstem
          202 192 572 193 vstem
          684 -20 rmoveto
          327 148 260 437 438 -135 223 -340 -324 -158 -241 -438 -438 147 -241 335 hvcurveto
          142 vmoveto
          -209 -81 207 330 330 81 207 209 203 79 -172 -347 -319 -79 -236 -203 hvcurveto
          endchar
        </CharString>
      <CharString index="0">
        -104 callsubr
        -64 52 -52 63 hvcurveto
        return
      </CharString>
      <CharString index="1">
        159 43 rmoveto
        0 166 -70 216 354 140 135 275 227 -103 88 -296 77 vhcurveto
        -226 59 -46 46 136 vvcurveto
        143 87 68 189 201 87 -61 0 vhcurveto
        51 74 6 70 -81 callgsubr
        -114 75 -227 -290 -188 -122 -284 -201 101 -117 308 -76 vhcurveto
        221 -55 36 -46 -134 vvcurveto
        -137 -74 -69 -226 -151 -183 59 0 vhcurveto
        -36 -87 -3 -73 0 vvcurveto
        return
      </CharString>
      <CharString index="2">
        rmoveto
        -353 174 -190 296 286 178 204 354 352 -174 174 -290 -280 -190 -188 -353 vhcurveto
        -58 callsubr
        233 89 171 199 199 83 -136 -253 -234 -83 -181 -199 -199 -89 146 254 vhcurveto
        return
      </CharString>
      <CharString index="3">
        rmoveto
        -357 125 -190 376 375 120 186 361 1 vhcurveto
        831 -182 vlineto
        0 4 -739 -120 vvcurveto
        -217 -85 -140 -233 -233 -81 140 217 vhcurveto
        859 -183 vlineto
        0 -4 -660 -171 vvcurveto
        return
      </CharString>
      <CharString index="4">
        745 hlineto
        19 77 -9 75 -81 callgsubr
        -333 -14 -239 vhcurveto
        493 vlineto
        136 364 -22 callsubr
        21 73 -10 -29 callgsubr
        -365 -8 -146 vhcurveto
        455 vlineto
        239 305 -12 0 hvcurveto
        31 64 -11 87 0 vvcurveto
        -747 hlineto
        return
      </CharString>
      <CharString index="5">
        179 -148 187 hintmask 0000000000000000
        hintmask 1101100001010000
        188 20 rmoveto
        0 -122 -75 -129 vvcurveto
        -165 158 -107 250 312 167 154 201 156 -54 111 -176 vhcurveto
        -334 hlineto
        -68 -27 27 49 hvcurveto
        hintmask 1101010010010000
        85 54 46 0 vhcurveto
        -15 39 75 -8 51 hhcurveto
        224 177 143 213 83 -33 74 -43 58 hvcurveto
        hintmask 1011010001010000
        126 54 rlineto
        69 -322 vlineto
        hintmask 1011010100001000
        0 -67 20 -62 -226 -176 -143 -215 -122 57 -97 80 -63 vhcurveto
        hintmask 1101010001001000
        -41 vlineto
        0 -109 -75 -120 vvcurveto
        -60 16 -45 33 -33 vhcurveto
        hintmask 1101100001010000
        325 426 rmoveto
        hintmask 1101010010010000
        -141 -83 96 134 135 83 96 141 139 83 -96 -135 -149 -83 -81 -139 hvcurveto
        -274 -622 rmoveto
        hintmask 1101010100001000
        79 31 42 16 25 vhcurveto
        391 hlineto
        69 20 -31 -72 -108 -73 -98 -213 -221 -20 85 78 hvcurveto
        hintmask 0000001000100000
        return
      </CharString>
      <CharString index="6">
        180 hlineto
        125 436 rlineto
        490 hlineto
        125 -436 rlineto
        186 hlineto
        -399 1358 rlineto
        -308 hlineto
        -51 -770 rmoveto
        189 654 rlineto
        24 hlineto
        189 -654 rlineto
        return
      </CharString>
      <CharString index="7">
        122 10 callgsubr
        -456 211 -238 409 156 162 25 0 vhcurveto
        0 10 288 320 vvcurveto
        0 -38 11 -55 -26 -30 -2 -9 -33 vhcurveto
        0 8 -296 2 -174 vhcurveto
        -6 -47 -54 -2 -55 hhcurveto
        -268 -160 199 340 341 160 221 268 -41 callsubr
        4 -29 callgsubr
        -158 50 -156 -399 -221 -261 -457 vhcurveto
        return
      </CharString>
      <CharString index="8">
        122 -10 callsubr
        194 -180 306 122 147 42 0 vhcurveto
        2 83 -29 59 -81 callgsubr
        -120 -38 -122 -198 -120 133 254 233 120 179 198 122 103 -37 0 vhcurveto
        30 61 8 71 -81 callgsubr
        -141 44 -122 -300 -200 -199 -352 vhcurveto
        return
      </CharString>
      <CharString index="9">
        -219 -12 -127 -79 -219 vvcurveto
        176 10 rmoveto
        97 45 73 146 8 vhcurveto
        231 15 rlineto
        -294 vlineto
        0 -77 -73 -136 -126 -83 38 136 vhcurveto
        return
      </CharString>
      <CharString index="10">
        rmoveto
        169 159 97 242 hvcurveto
        12 -24 -27 4 -16 hhcurveto
        -20 -25 -4 -10 -27 hvcurveto
        -124 -71 -65 -118 -118 -71 65 124 vhcurveto
        10 -27 -25 4 -20 hhcurveto
        -16 -27 -5 -11 -24 hvcurveto
        -242 159 -97 169 vhcurveto
        endchar
      </CharString>
      <CharString index="11">
        163 vmoveto
        -265 -106 212 331 331 106 213 265 266 97 -179 -346 -319 -97 -243 -266 hvcurveto
        return
      </CharString>
      <CharString index="12">
        rmoveto
        154 hlineto
        170 321 rlineto
        33 hlineto
        164 -321 rlineto
        163 hlineto
        -217 437 rlineto
        -240 hlineto
        endchar
      </CharString>
      <CharString index="13">
        375 hmoveto
        296 hlineto
        253 1198 rlineto
        24 hlineto
        250 -1198 rlineto
        296 hlineto
        373 1358 rlineto
        -182 hlineto
        -317 -1208 rlineto
        -33 hlineto
        -261 1208 rlineto
        -264 hlineto
        -265 -1208 rlineto
        -32 hlineto
        -313 1208 rlineto
        -192 hlineto
        return
      </CharString>
      <CharString index="14">
        226 hmoveto
        -90 callgsubr
        return
      </CharString>
      <CharString index="15">
        rmoveto
        616 hlineto
        15 43 0 51 -9 42 rrcurveto
        -621 hlineto
        -13 -42 0 -48 12 -46 rrcurveto
        endchar
      </CharString>
      <CharString index="16">
        rmoveto
        -107 callgsubr
        return
      </CharString>
      <CharString index="17">
        172 871 231 hlineto
        34 70 -14 73 0 vvcurveto
        -251 87 hlineto
        126 50 52 108 79 49 -20 0 vhcurveto
        34 63 4 69 -81 callgsubr
        -57 29 -124 -218 -97 -147 -166 vhcurveto
        -93 -163 vlineto
        0 -10 -65 10 -78 vhcurveto
        163 hlineto
        return
      </CharString>
      <CharString index="18">
        573 -20 142 -142 146 353 122 -90 116 298 139 hstemhm
        140 176 432 156 511 146 hintmask 00000000
        hintmask 01011111
        140 312 rmoveto
        -207 139 -125 191 239 99 150 0 vhcurveto
        52 hlineto
        -99 81 109 -51 162 hhcurveto
        174 128 59 0 hvcurveto
        hintmask 01101111
        0 -6 64 -33 75 vhcurveto
        0 -109 -52 -154 -199 -109 131 244 vhcurveto
        649 20 rlineto
        0 8 63 83 vvcurveto
        235 -142 162 -238 -116 -128 -66 -89 -64 vhcurveto
        93 -46 -67 62 -235 hhcurveto
        -156 -144 -68 0 0 4 -67 45 -59 hvcurveto
        hintmask 01011111
        0 102 55 149 176 47 -70 -149 vhcurveto
        -100 vlineto
        -282 -10 rlineto
        -177 -6 -149 -75 -203 vvcurveto
        hintmask 10101111
        772 305 rmoveto
        188 23 105 120 164 hhcurveto
        130 81 -126 -162 hvcurveto
        -1099 -316 rmoveto
        95 45 52 125 6 vhcurveto
        262 10 rlineto
        -97 22 -91 28 -65 vhcurveto
        hintmask 01011111
        -26 -26 -96 -83 -133 hhcurveto
        -126 -101 62 137 hvcurveto
        return
      </CharString>
      <CharString index="19">
        rmoveto
        148 86 75 133 119 -86 77 -148 -150 -80 -77 -126 -126 80 -75 150 hvcurveto
        98 vmoveto
        -76 -42 40 63 62 42 45 76 81 33 -38 -62 -60 -33 -50 -81 hvcurveto
        endchar
      </CharString>
      <CharString index="20">
        -834 vlineto
        0 -71 -66 -170 -152 -59 73 155 vhcurveto
        672 11 callgsubr
        return
      </CharString>
      <CharString index="21">
        rmoveto
        0 13 -41 -57 vvcurveto
        -70 -43 -61 -93 -16 -15 3 4 -17 vhcurveto
        -9 -30 -3 -31 -28 vvcurveto
        -56 12 -39 0 vhcurveto
        0 16 -5 48 169 95 121 141 91 -29 58 0 vhcurveto
        endchar
      </CharString>
      <CharString index="22">
        183 1159 32 hlineto
        475 -1159 rlineto
        316 1358 -182 -1159 -33 hlineto
        -466 1159 rlineto
        -325 hlineto
        return
      </CharString>
      <CharString index="23">
        193 331 rmoveto
        -213 111 -138 215 152 103 -6 callgsubr
        return
      </CharString>
      <CharString index="24">
        -71 57 -58 71 71 57 58 71 71 -57 57 -71 -71 -57 -57 -71 vhcurveto
        return
      </CharString>
      <CharString index="25">
        499 hmoveto
        183 1213 hlineto
        217 174 -22 callsubr
        22 74 -12 77 0 vvcurveto
        -966 hlineto
        -17 -77 12 -76 -81 callgsubr
        174 8 213 vhcurveto
        return
      </CharString>
      <CharString index="26">
        0 vvcurveto
        0 return
      </CharString>
      <CharString index="27">
        422 hmoveto
        183 509 hlineto
        407 849 rlineto
        -199 hlineto
        -284 -658 rlineto
        -36 hlineto
        -281 658 rlineto
        -199 hlineto
        409 -849 rlineto
        return
      </CharString>
      <CharString index="28">
        44 hmoveto
        911 hlineto
        37 87 -15 67 -81 callgsubr
        -391 -14 -337 vhcurveto
        710 1067 rlineto
        151 -872 vlineto
        0 -24 -56 24 -95 vhcurveto
        0 329 10 342 vhcurveto
        -714 -1065 rlineto
        return
      </CharString>
      <CharString index="29">
        -338 12 -28 37 -34 28 -11 rlinecurve
        endchar
      </CharString>
      <CharString index="30">
        -272 -235 -190 -381 hvcurveto
        -58 callsubr
        277 140 163 241 100 46 -20 0 vhcurveto
        -727 vlineto
        0 -91 -64 -105 -205 -126 107 264 vhcurveto
        return
      </CharString>
      <CharString index="31">
        -20 142 -101 -21 71 51 return
      </CharString>
      <CharString index="32">
        31 222 vhcurveto
        70 -54 -125 -4 return
      </CharString>
      <CharString index="33">
        296 298 -18 38 -78 64 -96 callsubr
        return
      </CharString>
      <CharString index="34">
        -393 343 rlineto
        0 -76 -46 -28 -72 vhcurveto
        354 -270 rlineto
        -41 vlineto
        -352 -286 rlineto
        13 -67 85 -44 0 vvcurveto
        393 354 rlineto
        0 14 25 40 vvcurveto
        38 -10 26 0 vhcurveto
        return
      </CharString>
      <CharString index="35">
        165 hmoveto
        183 1358 -183 hlineto
        return
      </CharString>
      <CharString index="36">
        -104 0 138 493 133 455 139 return
      </CharString>
      <CharString index="37">
        -126 -40 -31 -99 -21 vhcurveto
        0 6 -89 40 -64 vhcurveto
        193 43 74 93 166 vvcurveto
        return
      </CharString>
      <CharString index="38">
        hstemhm
        -70 callsubr
        return
      </CharString>
      <CharString index="39">
        174 79 117 196 197 -73 100 -180 -174 -83 -108 -197 return
      </CharString>
      <CharString index="40">
        0 180 137 33 221 vhcurveto
        71 -55 -126 -4 -4 hhcurveto
        -8 -197 -127 9 callsubr
        return
      </CharString>
      <CharString index="41">
        190 hmoveto
        172 474 66 hlineto
        373 -474 rlineto
        198 hlineto
        -426 530 408 490 rlineto
        -197 hlineto
        -350 -434 rlineto
        -72 return
      </CharString>
      <CharString index="42">
        -48 callgsubr
        290 139 return
      </CharString>
      <CharString index="43">
        -31 callgsubr
        530 hlineto
        0 115 -11 115 307 165 199 228 252 -137 160 -257 vhcurveto
        -491 hlineto
        183 -681 rmoveto
        530 263 vlineto
        166 79 -104 -161 -200 -145 -75 -199 -100 -64 10 0 hvcurveto
        return
      </CharString>
      <CharString index="44">
        -197 78 23 callgsubr
        vhcurveto
        -109 -728 rmoveto
        48 -59 68 -14 0 vvcurveto
        788 1336 rlineto
        -34 57 -80 15 0 vvcurveto
        -681 -489 rmoveto
        -106 -26 79 108 -63 callsubr
        hvcurveto
        return
      </CharString>
      <CharString index="45">
        172 hmoveto
        176 1021 -174 hlineto
        return
      </CharString>
      <CharString index="46">
        0 30 -58 52 -31 vhcurveto
        endchar
      </CharString>
      <CharString index="47">
        rmoveto
        715 vlineto
        0 91 66 105 205 126 -91 -300 -267 -132 -153 -239 -98 -58 30 0 vhcurveto
        return
      </CharString>
      <CharString index="48">
        0 91 146 91 vhcurveto
        134 90 -168 170 hhcurveto
        155 133 209 0 0 -32 51 -70 28 hvcurveto
        return
      </CharString>
      <CharString index="49">
        -64 hlineto
        -70 71 rlineto
        -162 -50 hlineto
        81 -83 rlineto
        return
      </CharString>
      <CharString index="50">
        66 -20 143 804 137 return
      </CharString>
      <CharString index="51">
        198 hmoveto
        -53 callgsubr
        return
      </CharString>
      <CharString index="52">
        -31 callgsubr
        596 hlineto
        105 395 -22 callsubr
        21 73 -10 75 -81 callgsubr
        -381 -8 -130 vhcurveto
        489 vlineto
        245 299 -12 0 hvcurveto
        31 64 -11 87 0 vvcurveto
        -747 hlineto
        return
      </CharString>
      <CharString index="53">
        183 619 588 -619 183 1358 -183 -588 -588 588 -183 hlineto
        return
      </CharString>
      <CharString index="54">
        -43 callsubr
        0 71 68 170 152 74 -74 -156 vhcurveto
        -693 172 714 vlineto
        213 -126 137 -215 -152 -103 -91 0 vhcurveto
        -13 callgsubr
        return
      </CharString>
      <CharString index="55">
        hstemhm
        66 173 22 callsubr
        -150 155 return
      </CharString>
      <CharString index="56">
        151 -37 callsubr
        641 194 vstem
        -58 callsubr
        369 hlineto
        400 249 229 456 456 -227 227 -408 -234 -149 -10 0 hvcurveto
        return
      </CharString>
      <CharString index="57">
        -31 callgsubr
        639 51 hlineto
        499 -639 rlineto
        232 hlineto
        -555 695 515 663 rlineto
        -227 hlineto
        -456 -606 rlineto
        -59 606 -183 hlineto
        return
      </CharString>
      <CharString index="58">
        1268 -173 -378 vlineto
        0 -65 20 -137 vhcurveto
        return
      </CharString>
      <CharString index="59">
        146 383 126 return
      </CharString>
      <CharString index="60">
        -21 923 50 -50 141 return
      </CharString>
      <CharString index="61">
        411 hstemhm
        return
      </CharString>
      <CharString index="62">
        152 -44 3 callsubr
        return
      </CharString>
      <CharString index="63">
        -58 callsubr
        464 hlineto
        286 154 146 249 199 -123 99 -124 43 hvcurveto
        124 40 73 116 128 vvcurveto
        return
      </CharString>
      <CharString index="64">
        203 -39 callgsubr
        return
      </CharString>
      <CharString index="65">
        140 -46 callgsubr
        return
      </CharString>
      <CharString index="66">
        527 vmoveto
        725 vlineto
        0 91 66 106 204 127 -78 -313 -254 -149 -166 -232 -78 -69 20 0 vhcurveto
        return
      </CharString>
      <CharString index="67">
        406 16 callsubr
        777 129 return
      </CharString>
      <CharString index="68">
        hmoveto
        -43 callsubr
        return
      </CharString>
      <CharString index="69">
        -540 385 return
      </CharString>
      <CharString index="70">
        236 -20 162 return
      </CharString>
      <CharString index="71">
        -197 -18 -41 -119 -25 vhcurveto
        -50 callsubr
        1408 -183 vlineto
        return
      </CharString>
      <CharString index="72">
        172 hintmask 00000000
        return
      </CharString>
      <CharString index="73">
        21 -21 871 143 265 141 return
      </CharString>
      <CharString index="74">
        66 -27 171 1083 158 return
      </CharString>
      <CharString index="75">
        -106 -20 148 799 137 return
      </CharString>
      <CharString index="76">
        -58 callsubr
        183 return
      </CharString>
      <CharString index="77">
        rmoveto
        -29 callsubr
      </CharString>
      <CharString index="78">
        74 -81 callgsubr
        return
      </CharString>
      <CharString index="79">
        33 65 -12 87 0 vvcurveto
        -944 hlineto
        -40 -740 rmoveto
        172 598 rlineto
        136 -598 hlineto
        return
      </CharString>
      <CharString index="80">
        236 0 199 960 199 return
      </CharString>
      <CharString index="81">
        -1129 endchar
      </CharString>
      <CharString index="82">
        -38 callgsubr
        176 -21 return
      </CharString>
      <CharString index="83">
        hlineto
        0 -23 -66 23 -77 vhcurveto
        return
      </CharString>
      <CharString index="84">
        184 187 return
      </CharString>
      <CharString index="85">
        134 71 -68 -123 -140 -69 -81 -105 -31 hvcurveto
        -304 -612 rmoveto
        475 vlineto
        return
      </CharString>
      <CharString index="86">
        209 -39 callgsubr
        0 31 68 170 152 54 -74 -156 vhcurveto
        return
      </CharString>
      <CharString index="87">
        -185 hlineto
        -10 -77 10 -66 0 vvcurveto
        185 return
      </CharString>
      <CharString index="88">
        -104 0 140 1077 141 return
      </CharString>
      <CharString index="89">
        hstemhm
        193 172 return
      </CharString>
      <CharString index="90">
        153 182 return
      </CharString>
      <CharString index="91">
        67 -20 132 811 50 -50 141 hstemhm
        192 172 527 182 return
      </CharString>
      <CharString index="92">
        rmoveto
        -1013 460 -62 -135 793 -360 93 -29 -96 -30 -790 return
      </CharString>
      <CharString index="93">
        hlineto
        -233 906 rlineto
        return
      </CharString>
      <CharString index="94">
        -43 447 -172 hlineto
        return
      </CharString>
      <CharString index="95">
        385 hmoveto
        0 93 -20 110 271 236 198 354 vhcurveto
        return
      </CharString>
      <CharString index="96">
        -49 callsubr
        endchar
      </CharString>
      <CharString index="97">
        hstemhm
        166 198 return
      </CharString>
      <CharString index="98">
        hstemhm
        -17 callgsubr
        return
      </CharString>
      <CharString index="99">
        -96 30 93 29 793 360 -62 135 -1013 -460 rlineto
        return
      </CharString>
      <CharString index="100">
        172 232 -69 callgsubr
        return
      </CharString>
      <CharString index="101">
        91 0 vhcurveto
        return
      </CharString>
      <CharString index="102">
        hstemhm
        2 callgsubr
        -225 193 hintmask 00000000
        hintmask 11000000
        189 return
      </CharString>
      <CharString index="103">
        408 -205 124 -202 -171 -89 -91 0 vhcurveto
        return
      </CharString>
      <CharString index="104">
        236 21 -21 619 151 return
      </CharString>
      <CharString index="105">
        -197 -128 9 callsubr
        return
      </CharString>
      <CharString index="106">
        182 hintmask 11010100
        return
      </CharString>
      <CharString index="107">
        183 391 13 return
      </CharString>
      <CharString index="108">
        168 180 return
      </CharString>
      <CharString index="109">
        128 256 return
      </CharString>
      <CharString index="110">
        1225 return
      </CharString>
      <CharString index="111">
        142 26 142 hstemhm
        115 966 hintmask 00000000
        return
      </CharString>
      <CharString index="112">
        406 21 -21 238 168 753 199 return
      </CharString>
      <CharString index="113">
        -20 146 745 143 return
      </CharString>
      <CharString index="114">
        67 21 -21 923 141 return
      </CharString>
      <CharString index="115">
        1091 153 -1091 hlineto
        return
      </CharString>
      <CharString index="116">
        98 210 96 return
      </CharString>
      <CharString index="117">
        667 rmoveto
        return
      </CharString>
      <CharString index="118">
        -172 vlineto
        return
      </CharString>
      <CharString index="119">
        197 107 153 hstem
        114 1075 vstem
        return
      </CharString>
      <CharString index="120">
        66 21 -7 callsubr
        return
      </CharString>
      <CharString index="121">
        -50 vlineto
        81 -83 rlineto
        -1306 172 vlineto
        return
      </CharString>
      <CharString index="122">
        222 523 rmoveto
        return
      </CharString>
      <CharString index="123">
        59 0 0 return
      </CharString>
      <CharString index="124">
        41 1106 return
      </CharString>
      <CharString index="125">
        vhcurveto
        188 vlineto
        -63 30 -78 -27 0 vvcurveto
        return
      </CharString>
      <CharString index="126">
        -9 callsubr
        411 hstem
        return
      </CharString>
      <CharString index="127">
        1204 411 hstem
        return
      </CharString>
      <CharString index="128">
        10 1531 return
      </CharString>
      <CharString index="129">
        8 1859 return
      </CharString>
      <CharString index="130">
        -108 179 return
      </CharString>
      <CharString index="131">
        0 callsubr
        1065 151 return
      </CharString>
</ttFont>
